<?xml version="1.0" encoding="utf-8"?>
<!-- Generator: Adobe Illustrator 21.0.0, SVG Export Plug-In . SVG Version: 6.00 Build 0)  -->
<svg version="1.1" id="OBJECTS" xmlns="http://www.w3.org/2000/svg" xmlns:xlink="http://www.w3.org/1999/xlink" x="0px" y="0px"
	 viewBox="0 0 103 86" style="enable-background:new 0 0 103 86;" xml:space="preserve">
<g>
	<g>
		<path d="M86.2,36.3h-0.4C81.1,25.6,67.6,18.7,51,18.7s-30.1,6.9-34.9,17.7h-0.4c-4.9,0-8.8,4-8.8,8.8c0,4.9,4,8.8,8.8,8.8H16
			l4.2,13.7c0.2,0.6,0.8,1.1,1.5,1l58.8-0.1c0.7,0,1.3-0.4,1.5-1l4.1-13.7h0.3c4.9,0,8.8-4,8.8-8.8C95.1,40.2,91.1,36.3,86.2,36.3z
			 M58.5,29.2c0.6-0.4,1.5-0.2,1.9,0.5l2.8,5.5c0.3,0.7,0.1,1.5-0.6,1.8c-0.2,0.1-0.4,0.2-0.6,0.2c-0.5,0-1-0.3-1.2-0.8l-2.8-5.5
			C57.7,30.3,57.8,29.5,58.5,29.2z M51,28.9c0.8,0,1.4,0.6,1.4,1.4v5.5c0,0.8-0.6,1.4-1.4,1.4c-0.8,0-1.4-0.6-1.4-1.4v-5.5
			C49.5,29.5,50.2,28.9,51,28.9z M38.7,35.2l2.7-5.5c0.3-0.7,1.2-0.9,1.8-0.6c0.7,0.3,0.9,1.2,0.6,1.8l-2.7,5.5
			c-0.2,0.5-0.7,0.8-1.2,0.8c-0.2,0-0.4,0-0.6-0.2C38.7,36.7,38.3,35.9,38.7,35.2z M79.2,65.7l-56.7,0.1l-3.8-12.4
			c1.3-0.5,2.4-1.3,3.3-2.2c4,5,11.2,5.7,16.2,1.7c0.5-0.4,1-0.9,1.5-1.4c4.8,6.2,13.7,7.2,19.8,2.4c0.9-0.7,1.7-1.5,2.5-2.5
			c4.2,4.8,11.5,5.3,16.2,1.1c0.5-0.4,1-0.9,1.4-1.5c0.9,1,2,1.7,3.3,2.2L79.2,65.7z"/>
		<path d="M45.7,19.8c0-3.7,2.3-6.6,5.1-6.6s5.1,3,5.1,6.6"/>
	</g>
</g>
</svg>
