<?xml version="1.0" encoding="utf-8"?>
<!-- Generator: Adobe Illustrator 21.0.0, SVG Export Plug-In . SVG Version: 6.00 Build 0)  -->
<svg version="1.1" id="Objects" xmlns="http://www.w3.org/2000/svg" xmlns:xlink="http://www.w3.org/1999/xlink" x="0px" y="0px"
	 viewBox="0 0 152 100" style="enable-background:new 0 0 152 100;" xml:space="preserve">
<style type="text/css">
	.st0{fill:#000100;}
	.st1{fill:none;stroke:#000100;stroke-width:1.0397;stroke-linecap:round;stroke-linejoin:round;stroke-miterlimit:10;}
	.st2{fill:none;stroke:#000100;stroke-linecap:round;stroke-linejoin:round;}
	.st3{fill:none;stroke:#000100;stroke-miterlimit:10;}
</style>
<g>
	<g>
		<g>
			<g>
				<path class="st0" d="M55.1,35.2c3.3,0,3.4-5.2,0-5.2C51.7,30,51.7,35.2,55.1,35.2L55.1,35.2z"/>
			</g>
		</g>
		<g>
			<g>
				<path class="st0" d="M67.2,34.4h0.1c1.4,0,2.7-1.2,2.6-2.6c-0.1-1.4-1.1-2.6-2.6-2.6h-0.1c-1.4,0-2.7,1.2-2.6,2.6
					C64.6,33.2,65.7,34.4,67.2,34.4L67.2,34.4z"/>
			</g>
		</g>
		<g>
			<g>
				<path class="st0" d="M79,35.6h0.1c1.4,0,2.7-1.2,2.6-2.6c-0.1-1.4-1.1-2.6-2.6-2.6H79c-1.4,0-2.7,1.2-2.6,2.6
					C76.5,34.5,77.6,35.6,79,35.6L79,35.6z"/>
			</g>
		</g>
		<g>
			<g>
				<path class="st0" d="M88.7,37.6C88.8,37.6,88.8,37.6,88.7,37.6c0.7,0.6,1.4,0.9,2.3,0.8c0.7-0.1,1.6-0.5,1.9-1.2c0,0,0,0,0-0.1
					c0.3-0.7,0.5-1.3,0.3-2c-0.2-0.6-0.6-1.3-1.2-1.6c-1.1-0.6-3-0.4-3.6,0.9c0,0,0,0,0,0.1c1.4-0.2,2.7-0.4,4.1-0.5
					c0,0-0.1,0-0.1-0.1c-1-0.9-2.7-1.1-3.7,0C87.8,34.9,87.7,36.6,88.7,37.6L88.7,37.6z"/>
			</g>
		</g>
		<g>
			<g>
				<path class="st0" d="M59,47.6l0.1-0.1c1-1,1-2.7,0-3.7s-2.6-1-3.7,0l-0.1,0.1c-1,1-1,2.7,0,3.7C56.4,48.6,58,48.7,59,47.6
					L59,47.6z"/>
			</g>
		</g>
		<g>
			<g>
				<path class="st0" d="M67.1,47.2l0.1,0.1c1,1,2.7,1,3.7,0s1-2.6,0-3.7l-0.1-0.1c-1-1-2.7-1-3.7,0C66.2,44.6,66.1,46.2,67.1,47.2
					L67.1,47.2z"/>
			</g>
		</g>
		<g>
			<g>
				<path class="st0" d="M79.5,48.7c3.3,0,3.4-5.2,0-5.2C76.1,43.5,76.1,48.7,79.5,48.7L79.5,48.7z"/>
			</g>
		</g>
		<g>
			<g>
				<path class="st0" d="M88.9,50.4c3.3,0,3.4-5.2,0-5.2C85.6,45.2,85.5,50.4,88.9,50.4L88.9,50.4z"/>
			</g>
		</g>
		<g>
			<g>
				<path class="st0" d="M99.9,53.2c3.3,0,3.4-5.2,0-5.2S96.5,53.2,99.9,53.2L99.9,53.2z"/>
			</g>
		</g>
		<g>
			<g>
				<path class="st0" d="M89.2,62.2c3.3,0,3.4-5.2,0-5.2C85.9,57,85.9,62.2,89.2,62.2L89.2,62.2z"/>
			</g>
		</g>
		<g>
			<g>
				<path class="st0" d="M79.7,61.2c3.3,0,3.4-5.2,0-5.2C76.4,56,76.4,61.2,79.7,61.2L79.7,61.2z"/>
			</g>
		</g>
		<g>
			<g>
				<path class="st0" d="M70,59.3c3.3,0,3.4-5.2,0-5.2C66.6,54.1,66.6,59.3,70,59.3L70,59.3z"/>
			</g>
		</g>
		<g>
			<g>
				<path class="st0" d="M58.7,59c3.3,0,3.4-5.2,0-5.2S55.3,59,58.7,59L58.7,59z"/>
			</g>
		</g>
		<g>
			<g>
				<path class="st0" d="M55.9,68.5v-0.1c0-1.4-1.2-2.7-2.6-2.6c-1.4,0.1-2.6,1.1-2.6,2.6v0.1c0,1.4,1.2,2.7,2.6,2.6
					C54.7,71.1,55.9,70,55.9,68.5L55.9,68.5z"/>
			</g>
		</g>
		<g>
			<g>
				<path class="st0" d="M62.7,71.9c3.3,0,3.4-5.2,0-5.2C59.4,66.7,59.3,71.9,62.7,71.9L62.7,71.9z"/>
			</g>
		</g>
		<g>
			<g>
				<path class="st0" d="M74,73.5c3.3,0,3.4-5.2,0-5.2C70.7,68.3,70.7,73.5,74,73.5L74,73.5z"/>
			</g>
		</g>
	</g>
	<circle class="st1" cx="36.3" cy="54.7" r="6.8"/>
	<circle class="st0" cx="36.3" cy="54.7" r="3.8"/>
	<g>
		<g>
			<g>
				<path class="st0" d="M89.3,83.2c-4.7-2.7-9.6-5.1-14.6-7.3h0.1l-21.5,3.3v-0.7c1,0,2,0.5,2.8,1s1.5,1.2,2.1,1.9
					c1.3,1.4,2.4,2.8,3.8,4c0.7,0.6,1.4,1.1,2.2,1.3c0.8,0.3,1.7,0.4,2.6,0.4c1.8,0,3.6-0.5,5.4-0.9c0.9-0.2,1.9-0.3,2.8-0.4
					c1,0,1.9,0,2.8,0.1c1.9,0.2,3.7,0.6,5.5,0.8c1.8,0.2,3.6,0.2,5.4-0.4c0.4-0.1,0.8-0.3,1.2-0.5c0.4-0.2,0.7-0.5,0.8-0.8
					c0.1-0.3-0.1-0.7-0.4-1C90.1,83.7,89.7,83.4,89.3,83.2z M89.5,82.8c0.4,0.2,0.8,0.5,1.2,0.9c0.3,0.4,0.7,0.9,0.6,1.5
					s-0.6,1-1,1.2S89.4,86.8,89,87c-1.8,0.7-3.8,0.8-5.6,0.7c-1.9-0.1-3.7-0.4-5.5-0.6s-3.6-0.1-5.4,0.2c-1.8,0.3-3.6,0.8-5.6,0.8
					c-1,0-2-0.1-2.9-0.5c-0.9-0.3-1.8-0.9-2.5-1.5c-1.4-1.3-2.5-2.8-3.8-4.1c-1.2-1.3-2.6-2.6-4.3-2.7l0,0c-0.2,0-0.4-0.2-0.3-0.4
					c0-0.2,0.1-0.3,0.3-0.3l21.5-3H75C79.9,77.7,84.8,80.1,89.5,82.8z"/>
				<path class="st0" d="M61.4,79.7c0.1,0,0.3,0,0.4,0c0.2,0.1,0.2,0.1,0.3,0.1c0.1,0.1,0.3,0.2,0.4,0.2c0.2,0.2,0.5,0.4,0.7,0.6
					c0.4,0.4,0.8,0.9,1.1,1.4s0.5,1,0.8,1.6l0.8,1.5l0,0l1.5,1.9c0.1,0.2,0.1,0.4-0.1,0.6c-0.2,0.1-0.4,0.1-0.5,0l0,0
					c-0.7-0.6-1.2-1.3-1.6-2v0.1c-0.7-1-1.5-2-2.1-3C62.4,81.5,61.9,80.5,61.4,79.7z M61.8,80c0.8,1,1.6,1.8,2.3,2.6
					c0.7,0.8,1.2,1.6,1.9,2.4l0,0l0,0c0.3,0.7,0.7,1.4,1.2,1.9l-0.6,0.5l-1.3-2l0,0l0,0c-0.5-1.1-0.9-2.2-1.4-3.1
					c-0.3-0.5-0.6-1-1-1.4c-0.2-0.2-0.4-0.4-0.6-0.5c-0.1-0.1-0.2-0.1-0.4-0.2C61.8,80.2,61.8,80.1,61.8,80
					C61.8,80.1,61.8,80,61.8,80z"/>
				<path class="st0" d="M69.8,85.1c-0.7-0.8-1.1-1.7-1.6-2.6l0,0c-0.9-1-1.9-2-2.9-3c-0.1-0.1-0.1-0.3,0-0.4s0.2-0.1,0.3-0.1l0,0
					c0.8,0.2,1.4,0.7,1.9,1.3c0.5,0.6,0.9,1.2,1.2,1.9l-0.1-0.1c0.6,0.6,1.2,1.2,1.8,1.9c0.6,0.6,1.1,1.3,1.6,2v0.1
					c0.1,0.2,0.1,0.4-0.1,0.5c-0.1,0.1-0.3,0.1-0.4,0C71,86.2,70.3,85.7,69.8,85.1z M70.1,84.8c0.5,0.5,1.2,0.8,1.8,1l-0.4,0.7
					c-0.6-0.6-1.3-1.2-1.8-1.8c-0.6-0.6-1.1-1.3-1.7-1.9l0,0v-0.1c-0.3-0.6-0.6-1.2-1-1.8c-0.4-0.5-0.9-1-1.5-1.2l0.3-0.5
					c0.9,1.1,1.8,2.1,2.7,3.1l0,0l0,0C69,83.2,69.4,84.1,70.1,84.8z"/>
				<path class="st0" d="M73.8,83l-2.2-2.6l0,0l-3.1-2.2c-0.1-0.1-0.1-0.2-0.1-0.3c0.1-0.1,0.2-0.1,0.3-0.1l0,0
					c1.2,0.5,2.3,1.3,3.2,2.2l0,0c2.8,1.9,5.5,3.8,8.2,5.8c0.2,0.2,0.3,0.5,0.1,0.7c-0.1,0.2-0.3,0.2-0.5,0.2l0,0
					c-1.2-0.1-2.4-0.5-3.4-1.2C75.4,84.8,74.5,84,73.8,83z M74.2,82.8c0.7,0.8,1.6,1.6,2.6,2c1,0.5,2,0.8,3.1,0.9l-0.4,0.9
					c-2.7-2-5.3-4-8-6.1l0,0l0,0c-0.8-0.9-1.8-1.7-2.9-2.2l0.2-0.4l3,2.3l0,0l0,0L74.2,82.8z"/>
				<path class="st0" d="M78.4,81.8c-1.1-1-1.9-2.1-2.9-3h0.1c-1.3-0.6-2.7-1.2-4-1.7c-0.1,0-0.2-0.2-0.1-0.3c0-0.1,0.1-0.1,0.2-0.1
					c0.8-0.1,1.6,0.1,2.3,0.4s1.4,0.8,1.9,1.3l-0.1-0.1l7.2,3c2.4,1,4.8,2,7.2,3c0.3,0.1,0.4,0.4,0.3,0.7c-0.1,0.2-0.3,0.3-0.5,0.3
					c-2.1,0-4.2-0.1-6.2-0.6C81.9,84.2,79.9,83.2,78.4,81.8z M78.7,81.5c1.5,1.3,3.4,2,5.4,2.4c1.9,0.4,3.9,0.5,6,0.5l-0.2,1
					c-2.4-1-4.8-2.1-7.1-3.2l-7.1-3.3l0,0c0,0,0,0-0.1,0c-1-1-2.4-1.8-3.8-1.7l0.1-0.4c1.3,0.6,2.7,1.2,4,1.8c0,0,0,0,0.1,0
					C76.8,79.4,77.7,80.6,78.7,81.5z"/>
			</g>
		</g>
		<g>
			<g>
				<path class="st0" d="M51.4,20.1c-0.1,0.3,0,0.4-0.1,0.5l-0.5,0.5c-0.3,0.4-0.7,0.7-1,1.1c-0.7,0.7-1.3,1.5-1.9,2.3
					c-1.2,1.6-2.3,3.2-3.4,4.9l-0.8-0.7c0.6-0.5,1.2-0.9,1.9-1.2c0.6-0.4,1.3-0.7,1.9-1c1.3-0.6,2.7-1.2,4.1-1.6l-0.3,0.6
					c-0.3-1-0.5-1.9-0.5-2.9c0-0.5,0-1,0.1-1.5c0-0.2,0.1-0.5,0.1-0.7c0-0.1,0.1-0.2,0.1-0.4v-0.1l0,0C51.2,20,51.3,20.1,51.4,20.1
					L51.4,20.1z M51.8,19.6c0,0.1,0.1,0.3,0,0.4c0,0.1,0,0.2-0.1,0.2v0.1c0,0.1-0.1,0.2-0.1,0.3c0,0.2-0.1,0.4-0.1,0.6
					c0,0.4,0,0.9,0,1.3c0.1,0.9,0.2,1.8,0.5,2.6c0.1,0.2,0,0.5-0.3,0.6l0,0l0,0c-1.3,0.5-2.6,1.1-3.9,1.7c-0.6,0.3-1.3,0.7-1.9,1
					c-0.6,0.4-1.2,0.7-1.7,1.1l0,0c-0.2,0.2-0.6,0.1-0.7-0.1c-0.1-0.2-0.1-0.4,0-0.6c1.1-1.7,2.2-3.4,3.5-4.9c0.6-0.8,1.3-1.5,2-2.3
					c0.4-0.4,0.7-0.7,1.1-1.1l0.6-0.5C51.1,19.8,51.6,19.6,51.8,19.6L51.8,19.6z"/>
			</g>
			<g>
				<g>
					<path class="st0" d="M81.5,15.7c-0.2-0.4-0.9-0.6-1.5-0.7c-0.6-0.2-1.3-0.3-1.9-0.4c-1.3-0.2-2.6-0.2-3.9-0.3
						c-2.7,0-5.3-0.1-7.9,0.1c-2.6,0.2-5.2,0.6-7.7,1.6c-2.4,1-4.6,2.4-6.6,4.2l0.2-0.4l0.4,5.4l-0.7-0.4c3.2-1.1,6.4-1.8,9.8-2.1
						c3.3-0.3,6.7-0.3,10-0.1l-0.5,0.7L71.1,23c-0.1-0.2,0-0.4,0.1-0.5l1.3-1.6L72.4,21l0.9-1.9c0.3-0.6,0.6-1.3,1-1.9
						c0.4-0.6,0.9-1.2,1.5-1.7s1.3-0.8,2.1-1c0.3,0,0.5,0.1,0.5,0.4c0,0.1,0,0.3-0.1,0.4l-5.2,6.3l0.1-0.1c-0.3,0.7-0.7,1.4-1.3,2
						l-0.2-0.7l3,1l-0.4,0.1c1.5-1.2,2.9-2.5,4.2-3.9c0.7-0.7,1.3-1.4,2-2.1c0.3-0.4,0.6-0.7,0.8-1.1C81.6,16.3,81.7,16,81.5,15.7
						L81.5,15.7z M82.1,15.3c0.3,0.6,0.2,1.2-0.1,1.7c-0.2,0.5-0.6,0.9-0.9,1.2c-0.6,0.7-1.3,1.4-2,2.1c-1.4,1.4-2.8,2.7-4.2,3.9
						c-0.1,0.1-0.2,0.1-0.4,0.1l0,0l-3.1-0.9c-0.2-0.1-0.3-0.3-0.3-0.5c0-0.1,0-0.1,0.1-0.1l0,0c0.5-0.5,0.8-1.2,1.1-1.8
						c0,0,0-0.1,0.1-0.1l5.2-6.3l0.4,0.8c-1.2,0.2-2.3,1.1-3,2.3c-0.4,0.6-0.7,1.2-0.9,1.8l-0.9,1.9v0.1l0,0l-1.3,1.6l0.1-0.5
						l0.1,0.3c0.1,0.3,0,0.5-0.3,0.6c-0.1,0-0.2,0-0.2,0c-6.5-0.5-13.2,0.1-19.3,2.1c-0.3,0.1-0.5,0-0.6-0.3v-0.1l-0.3-5.4
						c0-0.2,0.1-0.3,0.2-0.4c2-1.8,4.3-3.3,6.9-4.3c2.5-1,5.2-1.4,7.9-1.6c2.7-0.2,5.4-0.1,8,0c1.3,0,2.7,0.1,4,0.3
						c0.7,0.1,1.3,0.2,2,0.4c0.3,0.1,0.7,0.2,1,0.3C81.5,14.8,81.8,15,82.1,15.3L82.1,15.3z"/>
					<path class="st0" d="M56.3,22.9c0,0.2,0.1,0.3,0.1,0.6c0,0.1,0,0.2-0.1,0.4c-0.1,0.1-0.2,0.3-0.4,0.3c-0.2,0.1-0.4,0-0.5-0.2
						v-0.1l0,0c0-0.5,0-0.9,0-1.4v0.1c-0.2-0.9-0.3-1.8-0.3-2.7s0.2-1.9,0.6-2.7l0,0c0.1-0.3,0.4-0.4,0.7-0.2
						c0.2,0.1,0.3,0.3,0.3,0.5c-0.1,1.7-0.4,3.5-0.6,5.2v-0.1L56.3,22.9L56.3,22.9z M55.7,23.1l-0.1-0.6c0,0,0,0,0-0.1l0,0
						c0.1-1.7,0.1-3.5,0.2-5.2l1,0.3c-0.3,0.7-0.5,1.5-0.6,2.4c0,0.8,0,1.7,0.1,2.5l0,0v0.1c0,0.5-0.1,0.9-0.2,1.4l-0.5-0.4
						c0,0,0,0.1,0,0C55.7,23.3,55.7,23.2,55.7,23.1L55.7,23.1z"/>
					<path class="st0" d="M60.1,23.3L60.1,23.3c-0.1-0.6-0.3-1.3-0.4-2.1c-0.1-0.4-0.1-0.8-0.1-1.2v-1c-0.1-1.4,0.3-2.9,1.1-4.1
						c0.2-0.2,0.5-0.3,0.7-0.2s0.3,0.3,0.2,0.5c-0.2,1.4-0.4,2.8-0.7,4.2C60.6,20.8,60.3,22,60.1,23.3z M60.1,22.6
						c0.1-1.3,0.1-2.7,0.2-3.9c0-1.2,0.1-2.4,0.3-3.6l1,0.4c-0.3,0.5-0.6,1.1-0.8,1.7c-0.2,0.6-0.2,1.2-0.3,1.8v1
						c0,0.3,0,0.6-0.1,0.8C60.3,21.3,60.2,22,60.1,22.6L60.1,22.6z"/>
					<path class="st0" d="M63.8,22.4L63.8,22.4c0.1-0.6,0.1-1.2,0.2-1.8c0.1-0.7,0.2-1.3,0.3-2v0.1c0-0.4,0-0.8,0-1.1
						c0-0.4,0.1-0.8,0.2-1.2c0.2-0.8,0.5-1.5,0.8-2.2c0.1-0.3,0.5-0.3,0.7-0.2s0.3,0.4,0.3,0.6c-0.4,1.4-0.7,2.8-1.1,4.2v-0.1
						c0,0.6-0.1,1.2-0.2,1.8c-0.1,0.3-0.2,0.6-0.3,0.9c-0.1,0.2-0.2,0.3-0.2,0.4L64.3,22C64.3,22.3,64,22.4,63.8,22.4z M64.1,21.8
						c0-0.1-0.3-0.1-0.3-0.1l0.1-0.2c0.1-0.1,0.1-0.2,0.2-0.4c0.1-0.2,0.2-0.5,0.2-0.8c0.1-0.5,0.1-1.1,0.1-1.7c0,0,0,0,0-0.1l0,0
						c0.3-1.4,0.7-2.8,1-4.3l1,0.4c-0.3,0.6-0.6,1.2-0.8,1.9s-0.2,1.4-0.3,2.1l0,0c0,0,0,0,0,0.1c-0.1,0.5-0.3,0.9-0.5,1.4
						C64.6,20.7,64.3,21.3,64.1,21.8z"/>
					<path class="st0" d="M67.7,23.1L67.7,23.1c0.2-0.7,0.3-1.5,0.5-2.4c0.3-0.9,0.5-1.5,0.7-2.3c0.2-0.7,0.3-1.5,0.6-2.2
						c0.2-0.7,0.6-1.5,1.2-2.2c0.2-0.2,0.5-0.2,0.7,0s0.2,0.4,0.1,0.6c-0.6,1.4-1.1,2.8-1.7,4.1c-0.3,0.7-0.5,1.3-1,2.2
						C68.5,21.8,68,22.5,67.7,23.1z M67.9,22.5L67.9,22.5c0.2-0.8,0.3-1.5,0.4-2.1c0.1-0.5,0.4-1.3,0.7-2c0.5-1.4,1-2.8,1.6-4.2
						l0.9,0.6c-0.5,0.5-0.8,1.1-1,1.7c-0.2,0.7-0.4,1.4-0.6,2.1c-0.3,0.7-0.5,1.5-0.8,2C68.7,21.2,68.3,21.8,67.9,22.5z"/>
				</g>
			</g>
		</g>
		<g>
			<path class="st0" d="M42.1,31.2c0,0,0.1,0.1,0.3,0.4c0.2,0.3,0.5,0.7,0.9,1.2s0.8,1.2,1.3,2s1,1.7,1.5,2.7s1.1,2.1,1.5,3.3
				c0.5,1.2,0.9,2.5,1.4,3.8c0.4,1.3,0.8,2.8,1,4.2c0.3,1.5,0.5,2.9,0.6,4.5c0.1,1.5,0.1,3,0,4.5s-0.3,3-0.5,4.4
				c-0.5,2.8-1.3,5.4-2.3,7.4c-0.5,1-1,2-1.4,2.8c-0.5,0.8-0.9,1.5-1.3,2c-0.4,0.5-0.7,0.9-0.9,1.2C44,75.9,43.8,76,43.8,76
				c-0.2,0.2-0.4,0.2-0.6,0.1C43,76,43,75.7,43.1,75.6l0,0c0,0,0.1-0.2,0.2-0.5c0.1-0.3,0.4-0.8,0.7-1.3c0.3-0.6,0.6-1.3,1-2.1
				c0.4-0.8,0.7-1.7,1.1-2.7c0.4-1,0.8-2.1,1.1-3.3c0.4-1.2,0.7-2.5,1-3.8s0.5-2.7,0.7-4.1s0.2-2.8,0.2-4.3c0-1.4-0.1-2.9-0.3-4.3
				s-0.5-2.8-0.8-4.1c-0.3-1.3-0.7-2.6-1.2-3.8c-0.4-1.2-0.9-2.3-1.4-3.3s-1-1.9-1.5-2.6c-0.5-0.8-0.9-1.4-1.3-1.9
				c-0.4-0.5-0.7-0.9-0.9-1.2s-0.3-0.4-0.3-0.4c-0.1-0.2-0.1-0.5,0.1-0.6C41.6,30.9,41.9,31,42.1,31.2C42,31.2,42.1,31.2,42.1,31.2z
				"/>
		</g>
		<g>
			<path class="st0" d="M45.4,36.2c0,0,1-0.3,2.9-0.7c1.8-0.4,4.5-1.1,7.7-1.6s7.1-0.9,11.2-0.8c4.1,0.2,8.4,0.7,12.7,1.4
				s8.6,1.5,12.5,3s7.2,3.7,9.8,5.6c2.6,2,4.6,3.8,6.1,5c0.4,0.3,0.7,0.6,0.9,0.8c0.3,0.3,0.5,0.4,0.8,0.7c0.2,0.3,0.4,0.7,0.3,1.1
				c-0.1,0.2-0.2,0.4-0.3,0.4c-0.1,0.1-0.1,0.1-0.1,0.1l-0.5,0.3c-0.4,0.2-0.8,0-1-0.3c-0.2-0.4,0-0.8,0.3-1c0.2-0.1,0.4-0.1,0.6,0
				c0,0-0.1,0-0.2,0.2c0,0.2,0,0.2-0.1,0.1c-0.4-0.3-0.9-0.7-1.6-1.3c-1.5-1.2-3.6-2.9-6.2-4.7c-2.6-1.9-5.8-3.8-9.5-5.2
				c-3.7-1.4-7.9-2.1-12.1-2.8c-4.2-0.7-8.5-1.3-12.5-1.5c-2-0.1-3.9-0.1-5.7,0s-3.5,0.3-5.1,0.5c-3.2,0.4-5.8,0.9-7.7,1.3
				c-1.9,0.4-2.9,0.6-2.9,0.6c-0.3,0.1-0.6-0.1-0.7-0.5C44.9,36.6,45.1,36.3,45.4,36.2z"/>
		</g>
		<g>
			<path class="st0" d="M50.1,47.7c0,0,0.9-0.1,2.4-0.3c0.7-0.1,1.7-0.2,2.7-0.3c1.1-0.1,2.3-0.2,3.6-0.3c1.3-0.1,2.7-0.2,4.2-0.2
				c1.5-0.1,3.1-0.1,4.7,0c1.6,0.1,3.3,0.1,5,0.2s3.5,0.3,5.2,0.4c1.7,0.2,3.5,0.4,5.2,0.7c1.7,0.2,3.4,0.6,5,0.8
				c1.6,0.3,3.2,0.6,4.6,1c1.5,0.4,2.8,0.7,4.1,1.1c1.3,0.3,2.4,0.7,3.4,1s1.9,0.6,2.6,0.9c1.4,0.5,2.3,0.8,2.3,0.8
				c0.3,0.1,0.5,0.5,0.4,0.8s-0.5,0.5-0.8,0.4l0,0c0,0-0.8-0.2-2.3-0.6c-1.4-0.4-3.5-1-6-1.6c-1.2-0.3-2.6-0.6-4.1-0.9
				c-1.4-0.3-3-0.6-4.6-0.9s-3.2-0.6-4.9-0.8c-1.7-0.3-3.4-0.4-5.1-0.6c-1.7-0.2-3.4-0.4-5.1-0.5c-1.7-0.1-3.4-0.2-5-0.3
				c-1.6,0-3.2-0.1-4.6-0.1c-1.5,0-2.9,0-4.2,0.1c-1.3,0-2.5,0.1-3.5,0.1s-2,0.1-2.7,0.2c-1.5,0.1-2.4,0.2-2.4,0.2
				c-0.3,0-0.6-0.2-0.6-0.6C49.6,48,49.8,47.7,50.1,47.7z"/>
		</g>
		<g>
			<path class="st0" d="M49.6,59.4c0,0,0.2-0.1,0.5-0.2s0.8-0.3,1.4-0.5c0.6-0.2,1.4-0.4,2.3-0.6c0.5-0.1,0.9-0.2,1.4-0.3
				c0.5-0.1,1-0.1,1.6-0.2c2.2-0.2,4.9-0.2,7.7,0.1c2.8,0.3,5.7,0.7,8.6,1.2c2.9,0.5,5.8,1,8.5,1.3c1.3,0.1,2.6,0.3,3.9,0.3
				c1.2,0.1,2.4,0.1,3.5,0s2-0.1,2.9-0.2s1.6-0.2,2.2-0.4c0.6-0.1,1.1-0.3,1.4-0.3c0.3-0.1,0.5-0.1,0.5-0.1l0,0
				c0.3-0.1,0.7,0.1,0.8,0.5c0.1,0.3-0.1,0.7-0.4,0.8c0,0-0.2,0.1-0.5,0.2s-0.8,0.3-1.5,0.5c-0.6,0.2-1.4,0.4-2.3,0.6
				c-0.5,0.1-0.9,0.2-1.4,0.2c-0.5,0.1-1.1,0.1-1.6,0.2c-2.3,0.2-4.9,0.2-7.7-0.1c-2.8-0.3-5.7-0.7-8.6-1.2c-2.9-0.5-5.8-1-8.5-1.3
				c-1.3-0.1-2.6-0.3-3.9-0.3c-1.2-0.1-2.4,0-3.5,0c-1.1,0.1-2,0.1-2.9,0.3c-0.9,0.1-1.6,0.3-2.2,0.4c-0.6,0.1-1.1,0.3-1.4,0.4
				c-0.3,0.1-0.5,0.1-0.5,0.1c-0.3,0.1-0.6-0.1-0.7-0.4C49.2,59.8,49.3,59.5,49.6,59.4z"/>
		</g>
		<g>
			<path class="st0" d="M47.4,69c0,0,0.5,0,1.4,0.1s2.2,0.2,3.8,0.4c1.5,0.2,3.3,0.4,5.3,0.7c1.9,0.3,4,0.6,6,0.8
				c2,0.3,4.1,0.5,6,0.7c1,0.1,1.9,0.2,2.7,0.2c0.9,0.1,1.7,0.1,2.5,0.1c1.5,0,2.8,0,3.7,0s1.4,0,1.4,0l0,0c0.4,0,0.7,0.3,0.7,0.6
				c0,0.3-0.2,0.6-0.6,0.7c0,0-0.5,0.1-1.4,0.2c-0.5,0.1-1,0.1-1.6,0.2s-1.4,0.1-2.1,0.1c-1.6,0.1-3.4,0.1-5.4-0.1
				c-2-0.1-4-0.4-6.1-0.6c-2.1-0.3-4.1-0.7-6-1s-3.7-0.7-5.2-1c-3-0.6-5.1-0.9-5.1-0.9c-0.3-0.1-0.5-0.4-0.5-0.7
				C46.9,69.2,47.1,69,47.4,69z"/>
		</g>
		<g>
			<path class="st2" d="M106.3,43.2c0,0,3.3,3.4,4.3,5.2c1.1,1.8-1.4,3.2-1.4,3.2c3.9-1.1,8.1-0.6,11.9,0.8s7.2,3.6,10.6,5.7
				c2.2,1.4,4.4,2.8,6.6,4.2c1.4,0.9,3.1,1.7,4.4,0.9c-1.4-4-4.4-7.4-7.8-10s-7.3-4.5-11.1-6.4c5-3.7,9.4-8.2,13-13.4
				c0.5-0.8,1.1-1.7,0.9-2.6c0-0.2-0.1-0.4-0.3-0.5c-0.2-0.1-0.4-0.1-0.7,0c-3.3,0.7-5.7,3.3-8.2,5.5c-4,3.5-8.8,6.2-14,7.6
				C112,44.1,108.9,44.5,106.3,43.2z"/>
			<path class="st3" d="M141.3,62.4c-0.9-0.5-1.7-1.2-2.4-1.9c-4.5-4.1-8.9-8.7-14.6-10.8c-4.1-1.5-8.6-1.5-13-1.6"/>
			<path class="st3" d="M136.3,31.7c-2.5,1.9-5,3.9-7.1,6.2c-1.8,1.9-3.3,4.2-5.6,5.4c-2.7,1.5-5.9,1.4-9,1.9
				c-1.9,0.3-3.8,0.9-5.8,0.7"/>
		</g>
		<g>
			<path class="st0" d="M18.8,55.3C23.2,47,29.4,39.8,36.9,34c3.7-2.9,7.8-5.3,12-7.3s8.7-3.6,13.4-4.2c2.3-0.3,4.7-0.4,7.1-0.1
				c2.4,0.3,4.7,0.8,6.9,1.6s4.4,1.7,6.5,2.6c2.1,0.9,4.3,1.9,6.3,3c4.1,2.2,8.1,4.7,11.8,7.7c1.8,1.5,3.5,3.1,5.2,4.8
				c0.8,0.8,1.6,1.7,2.4,2.6c0.7,0.8,1.6,1.6,2.4,2.5c0.4,0.5,0.8,1,1,1.8c0.1,0.4,0.1,0.9,0,1.3c-0.2,0.5-0.4,0.8-0.6,1
				c-0.5,0.5-1.1,0.9-1.6,1.2c-0.5,0.3-1,0.6-1.5,0.8l-1.5,0.8c-0.5,0.3-1,0.6-1.5,0.9l-1.5,0.9l-1.4,1c-3.8,2.6-7.4,5.5-11,8.4
				s-7.4,5.8-11.4,8.2c-4,2.5-8.4,4.5-13.1,5.6c-4.7,1.2-9.6,1.2-14.3,0.4c-4.7-0.8-9.2-2.5-13.4-4.7c-4.1-2.3-7.9-5.2-11.3-8.5
				c-3.4-3.3-6.4-6.9-9-10.8c-0.1-0.2-0.1-0.5,0.1-0.6c0.2-0.1,0.5-0.1,0.6,0.1c2.8,3.7,5.9,7.2,9.3,10.2c3.4,3.1,7.1,5.8,11.2,8
				c4,2.1,8.4,3.7,12.8,4.4c4.5,0.7,9.1,0.7,13.4-0.4c4.4-1,8.6-3,12.5-5.3c3.9-2.4,7.6-5.2,11.2-8.1c3.7-2.8,7.3-5.7,11.2-8.4
				l1.5-1l1.5-0.9c0.5-0.3,1-0.6,1.5-0.9l1.6-0.8c1-0.6,2.2-1,2.8-1.6c0.3-0.4,0.4-0.4,0.3-0.8s-0.4-0.8-0.7-1.2
				c-0.7-0.8-1.5-1.6-2.4-2.5c-0.8-0.9-1.5-1.7-2.3-2.6c-1.6-1.7-3.3-3.2-5-4.7c-3.5-3-7.4-5.5-11.4-7.7c-2-1.1-4.1-2.1-6.2-3.1
				c-2.1-1-4.2-1.9-6.4-2.7s-4.4-1.4-6.7-1.6c-2.3-0.3-4.6-0.2-6.8,0.1c-4.6,0.6-9,2.2-13.1,4.1c-4.2,2-8.2,4.3-11.8,7.1
				c-3.7,2.8-7.1,6-10.1,9.5c-3,3.5-5.6,7.4-7.7,11.5c-0.1,0.2-0.4,0.3-0.6,0.2C18.7,55.8,18.6,55.5,18.8,55.3L18.8,55.3z"/>
		</g>
	</g>
	<g>
		<g>
			<path class="st0" d="M41.7,70.7c0,0,0,0.2,0,0.4c0,0.2,0,0.6,0,0.9s0.2,0.6,0.1,0.9c0,0.2,0.1,0.4,0.1,0.4l0,0
				c0,0.2-0.4,0.3-0.6,0.3c-0.1,0-0.3-0.1-0.3-0.2c0,0-0.1-0.2-0.2-0.4c-0.1-0.3-0.2-0.6-0.2-1s0.1-0.7,0.2-1
				c0.1-0.3,0.2-0.4,0.2-0.4l0,0c0.1-0.1,0.3-0.2,0.4-0.1C41.6,70.6,41.7,70.7,41.7,70.7z"/>
		</g>
		<g>
			<path class="st0" d="M39.1,69.3c0,0,0.1,0.1,0.1,0.3c0.1,0.2,0.1,0.4,0.1,0.6s0,0.4,0,0.6s-0.1,0.3-0.1,0.3
				c-0.1,0.2-0.3,0.3-0.5,0.2c-0.1,0-0.1-0.1-0.1-0.1s-0.1-0.1-0.1-0.3c-0.1-0.2-0.1-0.4-0.1-0.6s0-0.4,0.1-0.6
				c0-0.2,0.1-0.3,0.1-0.3C38.7,69.2,38.9,69.2,39.1,69.3C39,69.3,39.1,69.3,39.1,69.3z"/>
		</g>
		<g>
			<path class="st0" d="M36.6,67.5c0,0,0.1,0.1,0.1,0.3c0,0.2,0.1,0.4,0.1,0.7c0,0.3-0.1,0.5-0.1,0.7c-0.1,0.2-0.1,0.3-0.1,0.3
				c-0.1,0.2-0.3,0.2-0.5,0.1c-0.1,0-0.1-0.1-0.1-0.2c0,0-0.1-0.1-0.1-0.3c0-0.2,0-0.4,0-0.7c0-0.3,0.1-0.5,0.2-0.7
				c0.1-0.2,0.1-0.3,0.1-0.3c0.1-0.2,0.3-0.2,0.5-0.1C36.5,67.4,36.5,67.5,36.6,67.5z"/>
		</g>
	</g>
</g>
</svg>
