<?xml version="1.0" encoding="utf-8"?>
<!-- Generator: Adobe Illustrator 21.0.0, SVG Export Plug-In . SVG Version: 6.00 Build 0)  -->
<svg version="1.1" id="Layer_1" xmlns="http://www.w3.org/2000/svg" xmlns:xlink="http://www.w3.org/1999/xlink" x="0px" y="0px"
	 viewBox="0 0 136 86" style="enable-background:new 0 0 136 86;" xml:space="preserve">
<g>
	<path d="M128.8,44c-4.6-2.1-14.6-6.4-21.9-8.1c3.4-1.2,5.2-2.6,6.2-3.6l1.4,0.2c0.1,0,0.2,0,0.4,0c0.5,0,1.1-0.2,1.4-0.6
		c0.5-0.5,0.7-1.1,0.6-1.8c-0.4-3.6-3.7-10.8-13-12.3c-2.4-0.4-4.8-0.6-7.4-0.6c-4.9,0-10.4,0.8-14,2.2l0,0
		c-0.7-2.1-2.4-3.3-4.5-3.3c-1.3,0-2.8,0.4-4.6,1.4c-0.2,0.1-0.3,0.2-0.5,0.2c-0.1-0.1-0.1-0.3-0.2-0.4c-0.6-1-1.7-1.5-3-1.5
		c-0.9,0-1.9,0.2-2.9,0.7c-0.7,0.3-1.5,0.6-2.4,1c-1.1,0.4-2.2,0.8-3.2,1.3c0.3-0.7,0.6-1.4,0.9-2c2-4.4,2.6-5.9,2.1-7.3
		c-0.2-0.6-0.8-2-2.4-2l0,0l0,0c-1.8,0-2.6,1.7-3.9,4.3c-0.4,0.9-0.8,1.7-1.1,2.5c0-0.2-0.1-0.3-0.2-0.5c-0.1-0.3-0.7-1.4-2.3-1.4
		c-0.2,0-0.4,0-0.6,0c-2.9,0.4-5.1,2.8-5.3,6.1c-0.2,2.4-0.3,3.4-1.4,4.5c-1.5,1.4-3,4.6-3.8,7.5c-6.1,0.3-11,1-14.6,1.6
		c-2.4,0.4-4.4,0.6-5.6,0.6c-0.5,0-0.8,0-0.9-0.1c-2.2-2.5-5.1-5.4-8.7-5.4c-1.5,0-2.9,0.5-4.1,1.4c-3.7,2.7-2.7,5.6-1.9,8.1
		c0.5,1.5,1.1,3.3,1.1,5.6c0,2.4-0.6,4.1-1.1,5.6c-0.8,2.5-1.8,5.4,1.9,8.1c1.3,1,2.7,1.4,4.1,1.4c3.6,0,6.6-2.9,8.7-5.4
		c0.1,0,0.4-0.1,0.9-0.1c1.3,0,3.2,0.3,5.6,0.6c2.5,0.4,5.6,0.8,9.3,1.2c0,2.7,0.1,5.7,0.3,7.3c0.1,1.1,0.1,2.3,0,3.5
		c-0.1,1.7-0.2,3.3,0.4,4.6c0.5,1,1.8,3,3.6,3c0.8,0,1.5-0.3,1.9-1c0.7-1,0.5-2.2,0.2-3.1c-0.5-1.6-0.5-2.4-0.3-4.1
		c0-0.2,0-0.5,0.1-0.8c0-0.4,0.1-1.2,0.3-2.2c0.2-1.3,0.4-3,0.6-4.7c1.2,2.2,2.6,4.5,3.8,6.2c1.6,2.3,3.1,5.6,4.2,8
		c0.5,1.1,0.9,2,1.2,2.6c0.1,0.2,2.5,4.7,4.9,4.7c0.7,0,1.4-0.3,1.8-0.9c0.7-0.9,0.6-2.1,0.3-3c-0.5-1.9-1.5-3.7-2.5-5.5l0,0
		c0.3,0.2,0.8,0.6,1.2,1c3.4,2.8,6.2,5,8.4,5c0.5,0,0.9-0.1,1.4-0.3c1.1-0.5,1.4-1.3,1.5-1.9c0.8,0.2,1.7,0.4,2.8,0.4
		c0.6,0,1.2,0,1.8-0.1c1.8-0.2,2.9-1,3.1-2.1c4,1.9,11.7,2.9,17,2.9c3.4,0,6.2-0.3,8.5-1c8.8-2.6,15-8.7,15.3-12.8
		c0.1-0.7-0.2-1.3-0.7-1.7c-0.4-0.3-0.9-0.5-1.4-0.5c-0.2,0-0.3,0-0.5,0.1l-1,0.2c-1.3-1-4-2.2-8.7-2.2c-0.7,0-1.4,0-2.2,0.1
		c-2.4,0.2-4.2,0.4-5.7,0.5c-1.4,0.2-2.5,0.3-3.3,0.3s-0.9-0.1-1-0.3c-0.6-0.6-1.5-1-2.6-1c-1.5,0-3.4,0.6-5.3,1.3
		c-1.4,0.5-3.2,1.1-4.1,1.1c-0.3-0.3-0.7-0.5-1.1-0.8c-1.7-1.3-3.8-2.9-5.4-4.8c-0.6-0.7-1.2-1.2-1.8-1.5c0.1,0,0.2-0.1,0.2-0.1
		c1.5-0.5,2.8-1,4-1.3c2-0.5,3.6-1.2,4.7-2.2c1.4,0.1,2.8,0.2,4.3,0.2c6.4,0,12.6-1,16.7-1.6c2-0.3,3.7-0.6,4.4-0.6h0.1
		c2,0.1,10.4,3.7,13.2,4.9c1.2,0.5,1.8,0.8,2.1,0.9c0.2,0.1,0.5,0.3,0.7,0.5c0.3,0.3,0.9,0.8,1.7,0.8c0.7,0,1.3-0.3,1.7-0.8
		c0.5-0.7,0.5-1.4,0.3-2.1c1.9,0,2.3-1.5,2.4-1.8C131.8,45.4,130,44.6,128.8,44z M79,35.9c0.5-0.6,1.9-2.1,2.6-2.1
		c0.3,0,0.7,0.2,1.2,0.6c1.4,1.1,3.9,2.2,7.1,2.9c-2.1,0.4-4.2,0.9-5.9,1.3c-1.2-1.2-2.9-2-5-2.5c-0.1,0-0.1,0-0.2-0.1
		C79,36,79,35.9,79,35.9z M86.1,20.7c-0.2,0.1-0.5,0.3-0.7,0.4c-0.4,0.2-0.8,0.5-1.1,0.7c-0.6,0.4-0.9,0.7-0.9,0.7s0.4-0.2,1-0.4
		c0.7-0.3,1.6-0.6,2.8-0.9c0.6-0.2,1.2-0.3,1.9-0.5s1.4-0.3,2.1-0.4c0.7-0.1,1.5-0.2,2.3-0.3c0.4,0,0.8-0.1,1.2-0.1h1.2
		c0.8,0,1.6,0,2.3,0.1c0.8,0,1.5,0.2,2.3,0.3c0.4,0,0.7,0.1,1.1,0.2c0.3,0.1,0.7,0.2,1,0.2c0.7,0.1,1.3,0.3,1.9,0.5
		c0.3,0.1,0.6,0.2,0.8,0.3c0.3,0.1,0.5,0.1,0.7,0.2c0.5,0.2,0.9,0.3,1.2,0.5c0.7,0.2,1.1,0.4,1.1,0.4s-0.3-0.2-0.9-0.6
		c-0.3-0.2-0.7-0.4-1.1-0.7s-0.9-0.5-1.5-0.8c-0.1,0-0.2-0.1-0.2-0.1c6.4,1.3,9,5.6,9.9,8.2c-0.5-0.1-1.1-0.3-1.7-0.4
		c-2.3-0.5-5.3-1.1-8.4-1.6c-1.5-0.2-3.1-0.4-4.5-0.5s-2.8-0.2-3.9-0.2c-0.6,0-1.1,0-1.6,0s-0.9,0-1.2,0c-0.7,0-1.1,0-1.1,0
		s0.4,0,1,0.1c0.3,0,0.7,0.1,1.2,0.1c0.5,0.1,1,0.1,1.5,0.2c1.1,0.2,2.4,0.5,3.8,0.8s2.9,0.7,4.3,1.2c1.6,0.5,3.3,1,4.7,1.5
		c-3,0.2-5.4,1.5-12,1.5c-7.9,0-7.9-3-12.1-3c-0.5-0.1-1.1-0.3-1.8-0.7c-0.3-0.2-0.6-0.4-0.9-0.7c-0.3-0.2-0.5-0.5-0.7-0.7
		c-0.1-0.1-0.2-0.2-0.3-0.3s-0.1-0.2-0.2-0.3c-0.1-0.2-0.2-0.2-0.2-0.2s0,0.1,0,0.3c0,0.1,0,0.2,0,0.3s0,0.3,0.1,0.4
		c0,0.3,0.2,0.7,0.3,1.1c0.1,0.4,0.3,0.7,0.5,1.1c-2.1,0.4-3.1,1-4,1.5c-0.6,0.2-1.5,0.5-2.4,0.6c-0.5,0.1-0.9,0.1-1.3,0
		c-0.2,0-0.4-0.1-0.6-0.1c-0.2-0.1-0.4-0.1-0.5-0.1c-0.2-0.1-0.3-0.1-0.4-0.2c-0.1,0-0.2-0.1-0.3-0.2c-0.2-0.1-0.3-0.2-0.3-0.2
		s0.1,0.1,0.2,0.3c0.1,0.1,0.1,0.2,0.3,0.3c0.1,0.1,0.3,0.2,0.4,0.3c0.2,0.1,0.3,0.2,0.5,0.3s0.4,0.2,0.6,0.3
		c0.4,0.1,0.9,0.3,1.4,0.3c-0.6,0.3-1.3,0.6-2.2,0.9c-1.2,0.3-2.5,0.6-3.9,0.7c-0.9-0.2-2-0.4-3.2-0.7c3.3-3.5,9.7-7.8,11.3-7.9
		c0.1,0,0.1,0,0.2,0c0.9,0,1.4,0.2,1.8,0.2c0.5,0,0.9-0.3,1.7-1.6C81.2,22.3,83.2,21.3,86.1,20.7z M74.3,19.5
		c1.4-0.7,2.7-1.1,3.6-1.1c1.2,0,2.1,0.6,2.5,1.9c0.8,2.4-4.7,0.5-7.9,3.1c-1.2,1-3.9,1.5-5.7,2.5c0,0-0.1,0-0.1-0.1
		c0.4-0.3,0.7-0.5,1.1-0.7c0.6-0.3,1.1-0.5,1.7-0.7c0.6-0.2,1.2-0.4,1.7-0.6c0.6-0.2,1.1-0.6,1.5-0.9c0.4-0.3,0.8-0.7,1.2-1
		s0.7-0.5,1.1-0.7c0.3-0.2,0.7-0.2,0.9-0.3c0.5-0.1,0.9,0,0.9-0.1c0,0-0.3-0.1-0.9,0c-0.3,0-0.6,0.1-1,0.2c-0.4,0.1-0.8,0.3-1.2,0.6
		s-0.8,0.6-1.3,0.9c-0.4,0.3-0.9,0.6-1.5,0.8s-1.2,0.3-1.7,0.5c-0.6,0.2-1.2,0.4-1.8,0.6c-0.5,0.2-1.1,0.5-1.6,0.8
		c-0.1-0.1-0.3-0.1-0.4-0.2c-0.1,0-0.2,0-0.3,0S65,25,65,25s0.1,0.1,0.2,0.3c0,0.1,0.1,0.2,0.1,0.3c-0.4,0.3-0.7,0.7-1,1.3
		c-0.1,0.3-0.2,0.5-0.3,0.8c-0.1,0.2-0.2,0.4-0.4,0.7c-0.3,0.4-0.6,0.8-0.9,1.1c-0.6,0.7-1.2,1.1-1.6,1.5c-0.2,0.2-0.4,0.3-0.5,0.4
		c0,0-0.1,0.1-0.2,0.1l-0.1,0.1c-0.5-0.1-1.1-0.2-1.7-0.2c3-4,6.6-7.7,8.6-8.3C69.9,22.4,71.1,21.1,74.3,19.5z M67.7,18.6
		c0.8-0.4,1.4-0.5,2-0.5c1.2,0,1.7,0.8,1.1,2C70,21.7,66,21.8,64,22.3c-0.8,0.2-1.5,0.8-2.3,1.5l0,0c0,0,0,0-0.1,0
		c0.3-0.3,0.6-0.7,0.9-0.9c0.4-0.3,0.7-0.6,1.1-0.8c0.4-0.2,0.8-0.4,1.1-0.5c0.7-0.3,1.4-0.4,1.8-0.5c0.5-0.1,0.7-0.2,0.7-0.2
		s-0.3,0-0.7,0.1c-0.5,0.1-1.1,0.1-1.9,0.3c-0.8,0.2-1.7,0.5-2.6,1.1c-0.4,0.3-0.8,0.6-1.2,1c0,0,0,0-0.1,0
		c-0.3-0.1-0.7-0.2-0.9-0.2c-0.1,0-0.2,0-0.3,0s-0.1,0-0.1,0s0.1,0.1,0.3,0.3c0.1,0.2,0.3,0.4,0.3,0.7c0,0.1,0,0.1,0,0.2
		c-0.1,0.1-0.2,0.3-0.3,0.4c-0.3,0.4-0.6,0.9-0.9,1.3c-0.3,0.4-0.6,0.8-0.9,1.2c-0.6,0.8-1.2,1.5-1.7,2.1c-0.7,0.9-1.3,1.5-1.6,1.8
		c-0.5,0-0.9-0.1-1.4-0.1c1.8-3.6,4.7-6.3,6.1-8.1C61.2,20.6,65.2,19.8,67.7,18.6z M56,21.4c1.5-1.9,1.8-4.6,3.7-8.5
		c1.2-2.4,1.7-3.2,2-3.2c0.2,0,0.3,0.3,0.5,0.7c0.3,0.9-2,5.3-3.2,8.1c0.2-0.7,0.3-1.3,0.5-1.8c0.3-0.9,0.6-1.7,0.8-2.2
		s0.4-0.8,0.4-0.8s-0.2,0.3-0.4,0.8c-0.3,0.5-0.6,1.2-1,2.1c-0.4,0.9-0.8,2-1.2,3.1c-0.1,0.2-0.2,0.4-0.2,0.6
		c-0.3,0-0.5-0.1-0.7-0.1c-0.1,0-0.2,0-0.3,0.1c-0.1,0-0.1,0-0.1,0s0.1,0.1,0.3,0.2c0.2,0.2,0.3,0.4,0.4,0.6
		c-0.3,0.6-0.6,1.2-1.1,1.8c-0.2,0.2-0.4,0.5-0.6,0.7c-0.2,0.2-0.4,0.4-0.6,0.6c-0.2,0.2-0.5,0.4-0.7,0.6c-0.2,0.2-0.5,0.4-0.7,0.6
		c-0.9,0.9-1.7,1.7-2.3,2.5s-1.1,1.5-1.4,2c-0.2,0.3-0.3,0.5-0.3,0.6c0,0,0,0,0,0.1c-0.3,0-0.6,0-0.9,0c0-0.1,0-0.1,0.1-0.2
		C50.4,27.3,54.5,23.3,56,21.4z M55.9,16.8c-0.5,1.4-0.9,2.5-1.5,3.2c-0.2,0.3-0.5,0.6-0.8,0.9c0-0.9,0.1-1.8,0.5-2.2
		c0.3-0.3,0.6-0.6,0.9-0.9C55.3,17.5,55.6,17.2,55.9,16.8z M48.4,24.7c1.8-1.7,1.9-3.4,2.1-5.9c0.2-2.4,1.7-4,3.5-4.2
		c0.1,0,0.2,0,0.3,0c1.2,0-0.6,1.4-1.8,2.7c-1.2,1.4-1,4.1-0.9,5.8c0.1,1.1-0.6,1.6-1.4,2.5c0,0-0.1,0-0.1-0.1l0,0l0.2-0.3l0.2-0.3
		c0.3-0.4,0.5-0.9,0.6-1.4s0.2-0.9,0.2-1.3c0-0.9,0-1.7,0-2.3c0-0.3,0-0.6,0-0.9c0-0.3,0.1-0.5,0.1-0.7c0.1-0.4,0.2-0.6,0.2-0.6
		s-0.1,0.2-0.3,0.6c-0.1,0.2-0.1,0.4-0.2,0.7C51,19.3,51,19.6,51,19.9c-0.1,0.7-0.1,1.5-0.3,2.3c-0.1,0.4-0.2,0.8-0.3,1.2
		s-0.3,0.8-0.6,1.1l-0.2,0.3L49.4,25l-0.1,0.1c-0.3-0.1-0.5-0.2-0.7-0.2c-0.1,0-0.2,0-0.3,0s-0.1,0-0.1,0s0.1,0.1,0.3,0.3
		c0.1,0.2,0.2,0.4,0.3,0.6c-0.2,0.3-0.4,0.5-0.5,0.8c-0.4,0.8-0.8,1.5-1.1,2.1c-0.3,0.8-0.6,1.4-0.7,1.8c-0.4,0-0.8,0-1.3,0
		C46.1,28.2,47.4,25.6,48.4,24.7z M70.9,49.9c0.6-0.1,1.1-0.3,1.6-0.4c0.5-0.1,1-0.3,1.4-0.4c0.4-0.1,0.8-0.3,1.2-0.4
		c0.7-0.2,1.2-0.5,1.6-0.6c0.4-0.1,0.6-0.2,0.6-0.2s-0.2,0.1-0.6,0.3c-0.4,0.2-0.9,0.5-1.6,0.7c-0.3,0.1-0.7,0.3-1.2,0.5
		c-0.4,0.1-0.9,0.3-1.4,0.5s-1,0.3-1.6,0.5s-1.2,0.3-1.8,0.5s-1.3,0.3-2,0.4c-0.7,0.1-1.4,0.3-2.1,0.4c-0.7,0.1-1.5,0.2-2.2,0.3
		c-0.8,0.1-1.6,0.2-2.4,0.3c-1.6,0.2-3.3,0.3-4.9,0.4c-1.7,0.1-3.4,0.2-5.1,0.2c-3.4,0-6.9,0-10.1-0.2c-3.2-0.1-6.2-0.4-8.8-0.6
		c-2.6-0.2-4.7-0.5-6.2-0.7S23,51.1,23,51.1s0.9,0.1,2.3,0.2c1.5,0.1,3.6,0.3,6.2,0.5c2.6,0.2,5.5,0.3,8.7,0.4
		c3.2,0.1,6.6,0.2,10,0.1c1.7,0,3.4-0.1,5.1-0.2c1.7-0.1,3.3-0.2,4.9-0.4c0.8-0.1,1.6-0.2,2.3-0.2c0.8-0.1,1.5-0.2,2.2-0.3
		s1.4-0.2,2.1-0.3c0.7-0.1,1.3-0.2,2-0.4C69.7,50.2,70.3,50,70.9,49.9z M42.2,70.5c-0.4,0-1.3-0.8-1.7-1.8c-0.5-1.2-0.2-3.2-0.2-5.4
		c0,0.3,0,0.7,0.1,1c0,0.8,0.1,1.6,0.1,2.3c0.1,0.7,0.1,1.2,0.3,1.6c0.1,0.2,0.1,0.3,0.2,0.4c0.1,0.1,0.1,0.1,0.1,0.1s0-0.1-0.1-0.2
		c0-0.1-0.1-0.2-0.1-0.4c0-0.4,0-0.9,0-1.6c0-0.7,0.1-1.4,0.2-2.3c0.1-0.8,0.2-1.6,0.2-2.4c0.2-0.1,0.5-0.2,0.6-0.4
		c0.1-0.1,0.2-0.2,0.2-0.2c0-0.1,0.1-0.1,0.1-0.1s-0.2,0-0.4,0c-0.1,0-0.3-0.1-0.5-0.2c0-0.3,0-0.5,0-0.7c0-0.4,0-0.8,0-1.3
		c0-0.8,0.1-1.6,0.1-2.3c0-0.4,0.1-0.8,0.1-1.1c0.4,0.1,0.9,0.1,1.4,0.1c-0.3,3.2-0.8,6.5-0.9,7.8c-0.2,2.3-0.4,3.4,0.3,5.7
		C42.6,70.2,42.5,70.5,42.2,70.5z M59.1,74.9c0.2,0.9,0.1,1.3-0.1,1.3c-0.7,0-2.3-2.1-3.1-3.5c-0.8-1.5-2.1-4.9-3.7-7.9
		c0,0,0,0,0.1,0c0.6,0.9,1.1,1.9,1.6,2.8c0.6,1.1,1.2,2.1,1.7,3c1,1.8,1.6,2.9,1.6,2.9s-0.5-1.2-1.3-3.1c-0.4-0.9-0.9-2-1.4-3.1
		c-0.4-0.9-0.8-1.9-1.3-2.8c0.1-0.1,0.3-0.1,0.4-0.2c0.1-0.1,0.2-0.2,0.3-0.2C54,64,54,64,54,64s-0.2,0-0.4,0s-0.5-0.2-0.7-0.3
		c-0.3-0.6-0.6-1.1-1-1.6c-0.4-0.6-0.7-1.1-1.1-1.6c-0.7-1-1.4-2-2-2.8c-0.4-0.5-0.7-1-1-1.4c0.3,0,0.6,0,0.9,0
		c1.6,2,4.6,5.4,5.6,8.5C55.6,68.6,58.3,71.7,59.1,74.9z M68.6,72.6c-0.1,0.1-0.3,0.1-0.4,0.1c-1.4,0-4.2-2.2-6.3-3.9
		c0.1,0.1,0.2,0.1,0.3,0.2c1.7,1,2.9,1.7,2.9,1.7s-1.1-0.8-2.6-2.1c-0.6-0.5-1.2-1-1.8-1.6c0.2-0.3,0.4-0.7,0.5-0.9
		c0-0.1,0.1-0.2,0.1-0.3s0-0.1,0-0.1s-0.1,0.1-0.4,0.2c-0.2,0.1-0.5,0.2-0.8,0.2c-0.1,0-0.3,0-0.4,0c-0.8-0.8-1.6-1.7-2.3-2.6
		c-0.4-0.5-0.8-1-1.1-1.6c-0.2-0.2-0.3-0.5-0.5-0.8s-0.3-0.5-0.5-0.8c-0.7-1.1-1.3-2.1-1.8-3c-0.3-0.5-0.6-0.9-0.8-1.3
		c0.2,0,0.3,0,0.5,0c1.2,1.9,2.7,3.4,3.9,4.4c2,1.7,4.6,6.3,6.8,8.1C66.1,70.2,70.4,71.7,68.6,72.6z M75.5,70.8
		c-0.6,0.1-1.1,0.1-1.6,0.1c-2.8,0-4.3-1.2-6.3-2.6l0.1-0.1c0.4,0.2,0.7,0.3,1,0.4c2,0.8,3.3,1.1,3.3,1.1s-1.3-0.6-3.1-1.6
		c-0.3-0.2-0.6-0.3-0.9-0.5c0.1-0.1,0.1-0.3,0.2-0.4c0.1-0.2,0.1-0.4,0.1-0.4S68.2,66.9,68,67c-0.2,0.1-0.4,0.1-0.6,0.1
		c-0.5-0.3-0.9-0.6-1.4-1s-1-0.8-1.5-1.2c-0.5-0.5-1-0.9-1.4-1.4l-0.4-0.4c0-0.1-0.1-0.1-0.2-0.2l-0.2-0.2c-0.2-0.3-0.4-0.5-0.6-0.8
		c-0.4-0.5-0.8-1.1-1.1-1.6c-0.7-1.1-1.3-2.1-1.7-3c-0.4-0.8-0.7-1.4-0.9-1.9c0.2,0,0.3,0,0.5,0c0.6,1.1,1.4,2.3,2.4,3.4
		c3.7,4.2,5.3,7.1,8.6,8.1C72.8,68,79.7,70.2,75.5,70.8z M82.2,59.5c0.2,0.2,0.6,0.3,1,0.3c2.4,0,7.1-2.4,9.4-2.4
		c0.5,0,0.8,0.1,1.1,0.3c0.6,0.7,1.4,0.9,2.6,0.9c1.7,0,4.4-0.5,9.1-0.8c0.7-0.1,1.4-0.1,2-0.1c3.4,0,5.4,0.7,6.6,1.3
		c-0.1,0.1-0.2,0.1-0.3,0.2c-0.8,0.4-1.8,0.8-2.9,1.2s-2.2,0.8-3.4,1.1c-1.2,0.3-2.4,0.6-3.5,0.9c-1.1,0.2-2.2,0.4-3.1,0.6
		c-0.9,0.2-1.7,0.3-2.2,0.3c-0.5,0.1-0.9,0.1-0.9,0.1s0.3,0,0.9,0c0.5,0,1.3,0.1,2.3,0.1c0.9,0,2,0,3.2,0c1.2-0.1,2.4-0.1,3.7-0.3
		c1.3-0.1,2.5-0.3,3.7-0.5c0.6-0.1,1.1-0.2,1.6-0.3c-2.4,1.7-6.5,3.9-12.8,4.9c-4.4,0.6-7.7-0.6-11.4-1.8c0-0.1-0.1-0.1-0.1-0.2
		c-0.1-0.1-0.1-0.3-0.2-0.5c-0.1-0.2-0.1-0.3-0.1-0.5s0-0.4,0-0.6c0-0.2,0.1-0.4,0.1-0.6c0.1-0.2,0.2-0.4,0.3-0.6
		c0.1-0.2,0.2-0.4,0.4-0.6c0.2-0.2,0.3-0.4,0.5-0.5c0.2-0.2,0.4-0.3,0.5-0.4c0.3-0.3,0.6-0.4,0.9-0.6c0.2-0.1,0.3-0.2,0.3-0.2
		s-0.1,0-0.4,0c-0.3,0-0.6,0-1.1,0.2c-0.2,0.1-0.5,0.1-0.7,0.2c-0.3,0.1-0.5,0.2-0.8,0.3s-0.5,0.3-0.8,0.5s-0.5,0.4-0.8,0.7
		c-0.2,0.3-0.5,0.6-0.7,0.9c-0.2,0.3-0.3,0.7-0.5,1c-0.1,0.3-0.2,0.5-0.2,0.8c-0.9-0.2-1.9-0.3-2.9-0.4c-1.4-0.1-2.8-0.6-4.2-1.2
		c0-0.1,0.1-0.3,0.2-0.4c0.1-0.2,0.3-0.5,0.5-0.7c0.1-0.1,0.2-0.2,0.4-0.3c0.1-0.1,0.3-0.2,0.4-0.3c0.3-0.2,0.5-0.3,0.8-0.5
		c0.2-0.1,0.5-0.2,0.6-0.3c0.2-0.1,0.2-0.1,0.2-0.1s-0.1,0-0.3,0s-0.4,0-0.7,0s-0.6,0-1,0.1c-0.2,0-0.4,0.1-0.6,0.1
		c-0.2,0-0.4,0.1-0.6,0.2c-0.4,0.2-0.8,0.4-1.1,0.6c-0.3,0.2-0.5,0.5-0.8,0.7c-2.6-1.6-5.2-3.7-7.1-6c0.3-0.1,0.7-0.3,1-0.5
		c0.9-0.4,1.8-0.9,2.4-1.2c0.6-0.4,1-0.7,1-0.7s-0.5,0.1-1.2,0.2c-0.5,0-1.1,0.1-1.8,0.1c1.5-0.3,2.7-0.7,3.6-1
		c0.3,0.2,0.6,0.4,0.8,0.8C77.3,56.1,80.3,58.1,82.2,59.5z M129,46.9c-0.6,0-2-0.3-2.6-0.5c-1.3-0.4-16.8-7.2-24-7.6
		c-0.3,0-0.7,0-1,0c-5.7,0-11.7,2.5-17.5,3.5c0,0.2,0,0.4,0,0.4s0,0.5-0.2,1.1c3.4,0,10.9-0.3,14.8-0.7c3.7-0.4,7.7-1.3,10.5-1.3
		c1,0,1.8,0.1,2.4,0.4c2.1,1.2,15,5.2,15.5,6.9c0.2,0.6,0.2,0.8,0.1,0.8c-0.2,0-0.7-0.8-1.6-1.1c-1.4-0.5-12.9-5.8-15.9-5.9
		c-0.1,0-0.1,0-0.2,0c-2.6,0-11.5,2.2-21.1,2.2c-1.7,0-3.4-0.1-5.1-0.2l0,0l0,0c0,0-2.3,0.5-5.8,0.9c0-0.1-0.1-0.1-0.1-0.2
		c0.1,0,0.2-0.1,0.3-0.1c0.4-0.1,0.7-0.3,0.7-0.3s-0.3-0.1-0.7-0.1c-0.2,0-0.5,0-0.7,0c-0.3,0-0.6,0.1-0.8,0.2
		c-0.3,0.1-0.5,0.2-0.8,0.4c-0.2,0.1-0.4,0.2-0.5,0.4c-1.9,0.1-3.9,0.2-6,0.1c-1.6,0-3.1,0-4.7,0c1.1-0.2,2.1-0.4,3-0.6
		c1.2-0.2,2.2-0.5,3-0.7s1.5-0.4,1.9-0.5s0.7-0.2,0.7-0.2s-3.9,0.4-9.7,0.9c-1,0.1-2,0.2-3,0.2c0-0.1,0-0.1,0-0.2
		c0.2-0.9,0.3-1.9,0.3-2.9c0-0.5,0-1,0-1.4c0-0.5-0.1-0.9-0.1-1.4c0-0.4-0.1-0.9-0.2-1.3c0-0.4-0.1-0.8-0.2-1.1
		c-0.1-0.3-0.1-0.7-0.2-0.9c-0.1-0.3-0.2-0.5-0.2-0.7c-0.1-0.4-0.2-0.6-0.2-0.6s0,0.2,0.1,0.6c0,0.2,0.1,0.5,0.1,0.7
		c0,0.3,0,0.6,0.1,1c0,0.4,0,0.7,0,1.1c0,0.4,0,0.8,0,1.3c0,0.4-0.1,0.9-0.1,1.3c-0.1,0.4-0.1,0.9-0.2,1.4c-0.2,0.9-0.4,1.8-0.7,2.6
		c-0.1,0.3-0.2,0.5-0.3,0.8c-1.6,0.1-3.3,0.2-5.1,0.3s-3.7,0.2-5.6,0.2c-1,0-1.9,0-2.9,0c-0.1,0-0.2,0-0.3,0l0,0
		c0.2-0.4,0.3-0.8,0.5-1.2s0.3-0.9,0.4-1.3c0.1-0.4,0.2-0.9,0.4-1.4c0.1-0.5,0.2-0.9,0.2-1.4s0.1-0.9,0.1-1.4c0-0.4,0-0.9-0.1-1.3
		c-0.1-0.4-0.1-0.8-0.2-1.1c-0.1-0.3-0.2-0.7-0.2-0.9c-0.1-0.3-0.2-0.5-0.3-0.7c-0.2-0.4-0.2-0.6-0.2-0.6s0.1,0.2,0.2,0.6
		c0,0.2,0.1,0.4,0.2,0.7c0,0.3,0.1,0.6,0.1,0.9c0,0.3,0,0.7,0,1.1c0,0.4-0.1,0.8-0.1,1.2s-0.2,0.8-0.3,1.3c-0.1,0.4-0.3,0.9-0.4,1.3
		c-0.2,0.4-0.3,0.8-0.5,1.2s-0.4,0.8-0.6,1.2c-0.2,0.4-0.4,0.7-0.6,1.1c-0.2,0.3-0.3,0.5-0.5,0.7c-0.2,0-0.5,0-0.7,0s-0.4,0-0.6,0
		c0.2-0.6,0.4-1.3,0.5-2.1c0.2-0.8,0.3-1.7,0.4-2.5c0.1-0.4,0.1-0.9,0.1-1.3c0-0.4,0-0.8,0-1.2s-0.1-0.8-0.1-1.2
		c-0.1-0.4-0.1-0.7-0.2-1c-0.1-0.3-0.2-0.6-0.3-0.8c-0.1-0.3-0.2-0.5-0.3-0.6c-0.2-0.3-0.2-0.5-0.2-0.5s0.1,0.2,0.2,0.6
		c0,0.2,0.1,0.4,0.1,0.6c0,0.3,0.1,0.5,0.1,0.8s0,0.6,0,1s0,0.7-0.1,1.1c-0.1,0.4-0.1,0.8-0.2,1.2c-0.1,0.4-0.2,0.8-0.3,1.2
		c-0.2,0.8-0.5,1.6-0.7,2.3c-0.3,0.7-0.6,1.4-0.8,1.9c-0.1,0.2-0.2,0.3-0.2,0.5c-0.1,0-0.3,0-0.4,0c-1,0-1.9-0.1-2.9-0.1
		c-0.5,0-1.1-0.1-1.6-0.1c-0.3-1.1-0.6-2.6-0.8-4c-0.1-0.8-0.2-1.6-0.3-2.3s-0.1-1.4-0.1-2c0-0.3,0-0.6,0.1-0.8c0-0.2,0-0.5,0.1-0.6
		c0.1-0.3,0.1-0.5,0.1-0.5s-0.1,0.2-0.2,0.5c-0.1,0.2-0.1,0.4-0.2,0.6c-0.1,0.2-0.1,0.5-0.2,0.8c-0.1,0.6-0.2,1.3-0.3,2.1
		s-0.1,1.6-0.1,2.4c0,1.3,0.1,2.7,0.1,3.8c-0.8-0.1-1.5-0.1-2.2-0.2c-0.6-0.1-1.2-0.1-1.8-0.1c-0.1-0.4-0.3-0.8-0.4-1.2
		c-0.2-0.7-0.4-1.4-0.6-2.2c-0.1-0.4-0.1-0.8-0.2-1.1c0-0.4-0.1-0.8-0.1-1.1c0-0.4,0-0.7,0-1.1c0-0.3,0-0.7,0.1-1
		c0-0.3,0.1-0.6,0.1-0.8s0.1-0.4,0.1-0.6c0.1-0.3,0.1-0.5,0.1-0.5s-0.1,0.2-0.2,0.5c-0.1,0.2-0.2,0.4-0.2,0.6
		c-0.1,0.2-0.2,0.5-0.3,0.8s-0.1,0.6-0.2,1c-0.1,0.3-0.1,0.7-0.2,1.1c-0.1,0.4-0.1,0.8-0.1,1.2s0,0.8,0,1.2c0,0.8,0.1,1.6,0.2,2.4
		c0,0.3,0.1,0.6,0.2,0.9c-0.7,0.1-1.4,0.1-2.1,0.3c-0.3,0.1-0.5,0.1-0.8,0.2c-0.3-0.4-0.6-0.9-0.9-1.5c-0.1-0.3-0.3-0.6-0.4-0.9
		c-0.1-0.3-0.2-0.7-0.3-1s-0.1-0.7-0.2-1.1c0-0.4,0-0.7,0-1.1c0-0.3,0.1-0.7,0.1-1s0.1-0.6,0.2-0.9c0.1-0.3,0.1-0.5,0.2-0.7
		c0.1-0.2,0.1-0.4,0.2-0.6c0.1-0.3,0.2-0.5,0.2-0.5s-0.1,0.2-0.2,0.5c-0.1,0.1-0.2,0.3-0.3,0.5s-0.2,0.5-0.3,0.7
		c-0.1,0.3-0.2,0.6-0.3,0.9c-0.1,0.3-0.2,0.7-0.3,1c0,0.4-0.1,0.7-0.2,1.1c0,0.4-0.1,0.8,0,1.2c0,0.4,0.1,0.8,0.1,1.2
		c0.1,0.4,0.2,0.8,0.3,1.1c0.2,0.5,0.3,1,0.5,1.4c-0.4,0.1-0.7,0.2-1.1,0.3c-0.1-0.1-0.2-0.2-0.3-0.4c-0.3-0.4-0.7-0.9-1-1.5
		c-0.2-0.3-0.3-0.6-0.5-0.9c-0.2-0.3-0.3-0.6-0.4-0.9c-0.1-0.3-0.2-0.7-0.3-1s-0.2-0.7-0.2-1s-0.1-0.6-0.1-0.9c0-0.3,0-0.6,0-0.9
		c0-0.3,0.1-0.5,0.1-0.7c0.1-0.2,0.1-0.4,0.2-0.5c0.1-0.3,0.1-0.5,0.1-0.5s-0.1,0.2-0.2,0.4c-0.1,0.1-0.2,0.3-0.3,0.5
		s-0.2,0.5-0.2,0.7c-0.1,0.3-0.1,0.6-0.2,0.9c-0.1,0.3-0.1,0.7-0.1,1c0,0.4,0,0.7,0,1.1c0,0.4,0.1,0.7,0.1,1.1
		c0.1,0.4,0.2,0.7,0.3,1.1c0.1,0.4,0.2,0.7,0.3,1c0.2,0.7,0.5,1.3,0.8,1.8c-0.7,0.2-1.4,0.4-2,0.4c-0.1-0.1-0.1-0.2-0.2-0.3
		c-0.2-0.3-0.3-0.6-0.5-0.9c-0.1-0.3-0.3-0.7-0.5-1.1c-0.3-0.7-0.6-1.6-0.8-2.4c-0.1-0.4-0.2-0.8-0.3-1.3c0-0.4-0.1-0.8-0.1-1.2
		s0-0.8,0-1.2c0.1-0.4,0.1-0.7,0.1-1c0.1-0.3,0.2-0.6,0.2-0.9c0.1-0.3,0.2-0.5,0.3-0.6c0.2-0.4,0.2-0.6,0.2-0.6s-0.1,0.2-0.3,0.5
		c-0.1,0.2-0.2,0.4-0.3,0.6c-0.1,0.3-0.2,0.5-0.3,0.9c-0.1,0.3-0.2,0.7-0.3,1.1c-0.1,0.4-0.1,0.8-0.2,1.2c0,0.4,0,0.9-0.1,1.3
		c0,0.4,0,0.9,0.1,1.4c0.1,0.9,0.3,1.8,0.5,2.6c0.1,0.4,0.2,0.8,0.3,1.2c0.1,0.2,0.1,0.4,0.2,0.6c-0.7-0.2-1.3-0.5-1.8-0.9
		c-0.7-0.5-1.1-1-1.4-1.4c-0.3-0.4-0.4-0.5-0.4-0.5s0.1,0.2,0.3,0.6c0.2,0.4,0.6,1,1.2,1.6c0.3,0.3,0.7,0.6,1.2,0.9
		c-1.4-0.3-2.7-1.2-4-2.9c0,0.5-0.1,1.1-0.3,1.8c-0.1,0.6-0.3,1.2-0.5,1.9s-0.4,1.3-0.6,2c-0.2,0.7-0.3,1.4-0.1,2.1
		c0.1,0.2,0.1,0.3,0.2,0.5l0.3,0.4c0.2,0.3,0.4,0.5,0.8,0.8c0.6,0.5,1.2,0.9,1.9,1.1c0.7,0.2,1.4,0.2,2.1,0.1
		c0.7-0.1,1.3-0.4,1.9-0.7c0.6-0.3,1.1-0.7,1.5-1c0.5-0.4,0.9-0.7,1.2-1c0.4-0.3,0.6-0.6,0.9-0.9c0.5-0.5,0.8-0.8,0.8-0.8
		s-0.2,0.3-0.7,0.9c-0.2,0.3-0.5,0.6-0.8,0.9c-0.3,0.4-0.7,0.8-1.1,1.1c-0.4,0.4-1,0.8-1.5,1.2c-0.6,0.3-1.3,0.7-2,0.9
		c-0.8,0.1-1.6,0.2-2.4-0.1c-0.8-0.2-1.5-0.7-2.1-1.2c-0.3-0.2-0.6-0.6-0.9-0.9l-0.3-0.5c-0.1-0.2-0.2-0.4-0.2-0.6
		c-0.2-0.8-0.1-1.7,0.1-2.4c0.2-0.7,0.5-1.4,0.7-2s0.4-1.2,0.6-1.8c0.2-0.6,0.3-1.1,0.4-1.5c0.1-0.5,0.2-0.9,0.2-1.2
		c0.1-0.7,0.1-1.1,0.1-1.1c0-3.1-0.8-5.2-1.4-7v-0.1c0-0.2-0.1-0.4-0.1-0.7c0-0.2,0-0.3,0-0.5s0-0.4,0.1-0.5c0-0.2,0.1-0.4,0.2-0.6
		c0.1-0.2,0.2-0.4,0.3-0.6c0.1-0.2,0.2-0.4,0.4-0.5c0.1-0.2,0.3-0.3,0.4-0.5c0.2-0.1,0.3-0.3,0.5-0.4c0.2-0.1,0.3-0.2,0.5-0.3
		c0.3-0.2,0.6-0.3,0.7-0.4c0.2-0.1,0.3-0.2,0.3-0.2s-0.1,0-0.3,0.1s-0.5,0.1-0.9,0.2c-0.2,0.1-0.4,0.1-0.6,0.2
		c-0.2,0.1-0.4,0.2-0.6,0.3c-0.2,0.1-0.4,0.3-0.6,0.4c-0.1,0-0.1,0.1-0.2,0.2c0.3-0.4,0.7-0.8,1.2-1.2c1-0.7,1.9-1,2.9-1
		c3,0,5.8,3,7.2,4.8c0.4,0.5,1.2,0.7,2.4,0.7c3.3,0,9.6-1.6,19.3-2.1c1.3-0.1,7.6-0.3,13.2-0.1l0,0c0.8,0,1.6,0.1,2.4,0.2l0,0
		c1,0.1,1.9,0.2,2.8,0.3c0.6,0.1,1.3,0.2,1.9,0.3c3.8,0.6,10.4,2.6,11.6,3.1l0,0c1.7,0.6,3.1,1.2,4.6,1.5c2.8,0.7,4.1,1.8,4.7,2.8
		c4.6-1,13-2.9,17.2-3.5c0.3-0.1,0.7-0.1,1.1-0.1c6.9,0,22.9,7.1,26.2,8.6C129.6,46.7,129.6,46.9,129,46.9z"/>
	<path d="M77.3,39.2c0.1-0.1,0.1-0.2,0.2-0.3c0.1-0.5-0.3-1-1-1.1c-0.7-0.2-1.3,0.1-1.4,0.5v0.1c-0.1,0-0.1-0.1-0.2-0.1
		c-0.4-0.1-0.7-0.2-0.7-0.2s0.1,0.3,0.5,0.6c0.2,0.1,0.4,0.3,0.6,0.4c0.2,0.1,0.5,0.3,0.8,0.4c0.3,0.1,0.6,0.2,0.8,0.2
		c0.3,0,0.5,0,0.7,0c0.4,0,0.7-0.1,0.7-0.1s-0.3-0.1-0.7-0.3C77.5,39.3,77.4,39.3,77.3,39.2z"/>
</g>
</svg>
