<?xml version="1.0" encoding="utf-8"?>
<!-- Generator: Adobe Illustrator 21.0.0, SVG Export Plug-In . SVG Version: 6.00 Build 0)  -->
<svg version="1.1" id="OBJECTS" xmlns="http://www.w3.org/2000/svg" xmlns:xlink="http://www.w3.org/1999/xlink" x="0px" y="0px"
	 viewBox="0 0 500 500" style="enable-background:new 0 0 500 500;" xml:space="preserve">
<style type="text/css">
	.st0{fill:#F9CF00;}
	.st1{fill:#FFDC15;}
	.st2{fill:#DDB800;}
	.st3{fill:#F5911E;}
	.st4{opacity:0.35;fill:#231F20;}
</style>
<g>
	<polygon class="st0" points="379.9,189.3 276.6,179.3 326.6,140.6 429.9,150.6 	"/>
	<polygon class="st1" points="379.9,189.3 379.9,269.4 348.7,266.3 335.1,265 322.6,263.8 310,262.6 302.3,261.8 290.1,260.7 
		280.6,259.7 276.6,259.4 276.6,179.3 	"/>
	<polygon class="st2" points="429.9,230.6 379.9,269.4 379.9,189.3 429.9,150.6 	"/>
	<g>
		<path class="st2" d="M327.8,145v7.1c0,3.4,7.4,6.1,16.4,6.1c9.1,0,16.4-2.7,16.4-6.1V145H327.8z"/>
		<ellipse class="st1" cx="344.2" cy="145" rx="16.4" ry="6.1"/>
	</g>
	<g>
		<path class="st2" d="M301.8,164.3v7.1c0,3.4,7.4,6.1,16.4,6.1c9.1,0,16.4-2.7,16.4-6.1v-7.1H301.8z"/>
		<ellipse class="st1" cx="318.2" cy="164.3" rx="16.4" ry="6.1"/>
	</g>
	<g>
		<path class="st2" d="M375,149v7.1c0,3.4,7.4,6.1,16.4,6.1c9.1,0,16.4-2.7,16.4-6.1V149H375z"/>
		<ellipse class="st1" cx="391.4" cy="149" rx="16.4" ry="6.1"/>
	</g>
	<g>
		<path class="st2" d="M349,168.3v7.1c0,3.4,7.4,6.1,16.4,6.1c9.1,0,16.4-2.7,16.4-6.1v-7.1H349z"/>
		<ellipse class="st1" cx="365.4" cy="168.3" rx="16.4" ry="6.1"/>
	</g>
	<g>
		<path class="st3" d="M276.6,242.1v17.3l4,0.4c0-0.3,0-0.7,0-1C280.6,252.2,279.2,246.6,276.6,242.1z"/>
		<path class="st3" d="M322.6,263.8l-8-27.4l-16.4-1.6l-8,25.9l12.1,1.2v0c1.3-4.8,2.5-10.9,3.6-16.1l0.3,0
			c1.3,5.3,2.5,11.7,3.8,16.8v0L322.6,263.8z"/>
		<path class="st3" d="M335.1,238.4V265l13.6,1.3v-26.6L335.1,238.4z"/>
	</g>
</g>
<g>
	<polygon class="st0" points="270,260.5 220,299.2 185.2,295.8 177.1,295 134.3,290.9 116.7,289.2 130,278.9 157.9,257.3 
		166.8,250.5 184.6,252.2 187.1,252.4 227.1,256.3 	"/>
	<polygon class="st1" points="220,299.2 220,379.3 116.7,369.3 116.7,289.2 125.3,290 139.2,291.4 149,292.3 168.6,294.2 176.3,295 
		190.2,296.3 210.1,298.2 	"/>
	<polygon class="st2" points="270,340.5 220,379.3 220,299.2 270,260.5 	"/>
	<g>
		<path class="st2" d="M167.9,254.9v7.1c0,3.4,7.4,6.1,16.4,6.1s16.4-2.7,16.4-6.1v-7.1H167.9z"/>
		<ellipse class="st1" cx="184.3" cy="254.9" rx="16.4" ry="6.1"/>
	</g>
	<g>
		<path class="st2" d="M141.9,274.2v7.1c0,3.4,7.4,6.1,16.4,6.1c9.1,0,16.4-2.7,16.4-6.1v-7.1H141.9z"/>
		<ellipse class="st1" cx="158.3" cy="274.2" rx="16.4" ry="6.1"/>
	</g>
	<g>
		<path class="st2" d="M215.1,258.9v7.1c0,3.4,7.4,6.1,16.4,6.1c9.1,0,16.4-2.7,16.4-6.1v-7.1H215.1z"/>
		<ellipse class="st1" cx="231.6" cy="258.9" rx="16.4" ry="6.1"/>
	</g>
	<g>
		<path class="st2" d="M189.1,278.2v7.1c0,3.4,7.4,6.1,16.4,6.1s16.4-2.7,16.4-6.1v-7.1H189.1z"/>
		<ellipse class="st1" cx="205.6" cy="278.2" rx="16.4" ry="6.1"/>
	</g>
	<g>
		<path class="st3" d="M149,292.3v6l7.6,0.7v7.2c-0.9,0.5-2.5,0.7-3.9,0.6c-8.8-0.9-13.1-6.3-13.4-15.5l-13.9-1.4
			c0.2,17.4,11.7,27.1,25.9,28.5c7.3,0.7,13.7-1.5,17.4-4.7v-19.6L149,292.3z"/>
		<path class="st3" d="M210.1,298.2c-0.3,8.8-4,13.9-9.9,13.3c-5.9-0.6-9.6-6.4-9.9-15.2l-13.9-1.4c0.4,16.4,9.9,27,23.8,28.4
			c8.7,0.9,15.7-2.2,19.8-8.7v-15.4L210.1,298.2z"/>
	</g>
	<path class="st4" d="M231.7,252.8l-12.8,9.9c0,0,0,0,0,0l0,0l0,7l-4.3,3.3c-2.2-0.5-4.8-0.9-7.6-1h-0.2l-13.2,10.2v7l-3.3,2.6
		l-68.4-6.6l8.2-6.4l27.9-21.6l8.8-6.9l5.1,0.5c3-1.3,7.5-2.1,12.5-2.1c8,0,14.6,2.1,16.1,4.9l17.6,1.7
		C221.1,253.9,226,252.8,231.7,252.8L231.7,252.8z"/>
</g>
<g>
	<polygon class="st0" points="328.2,310.2 225,300.2 275,261.5 378.3,271.5 	"/>
	<polygon class="st1" points="328.2,310.2 328.2,390.3 225,380.3 225,300.2 229,300.6 238.5,301.5 250.6,302.7 258.4,303.4 
		271,304.7 283.5,305.9 297.1,307.2 	"/>
	<polygon class="st2" points="378.3,351.5 328.2,390.3 328.2,310.2 378.3,271.5 	"/>
	<g>
		<path class="st2" d="M276.2,265.9v7.1c0,3.4,7.4,6.1,16.4,6.1c9.1,0,16.4-2.7,16.4-6.1v-7.1H276.2z"/>
		<ellipse class="st1" cx="292.6" cy="265.9" rx="16.4" ry="6.1"/>
	</g>
	<g>
		<path class="st2" d="M250.2,285.2v7.1c0,3.4,7.4,6.1,16.4,6.1c9.1,0,16.4-2.7,16.4-6.1v-7.1H250.2z"/>
		<ellipse class="st1" cx="266.6" cy="285.2" rx="16.4" ry="6.1"/>
	</g>
	<g>
		<path class="st2" d="M323.4,269.9v7.1c0,3.4,7.4,6.1,16.4,6.1s16.4-2.7,16.4-6.1v-7.1H323.4z"/>
		<ellipse class="st1" cx="339.8" cy="269.9" rx="16.4" ry="6.1"/>
	</g>
	<g>
		<path class="st2" d="M297.4,289.2v7.1c0,3.4,7.4,6.1,16.4,6.1c9.1,0,16.4-2.7,16.4-6.1v-7.1H297.4z"/>
		<ellipse class="st1" cx="313.8" cy="289.2" rx="16.4" ry="6.1"/>
	</g>
	<g>
		<path class="st3" d="M225,300.2v15.4c2.4-3.9,3.9-8.9,4-15L225,300.2z"/>
		<path class="st3" d="M271,304.7l-12.6-1.2l0.9,3.7l-9.5-0.9l0.9-3.5l-12.1-1.2l-7.6,24.4l13.9,1.4l2.5-10.8l14.4,1.4l2.5,11.3
			l14.4,1.4L271,304.7z"/>
		<path class="st3" d="M297.1,321v-13.8l-13.6-1.3v25.2l33,3.3v-11.5L297.1,321z"/>
	</g>
</g>
<g>
	<polygon class="st0" points="175.5,197.4 72.2,187.4 122.2,148.7 225.5,158.7 	"/>
	<polygon class="st1" points="175.5,197.4 175.5,277.5 165.6,276.5 145.7,274.6 131.8,273.2 124,272.5 104.5,270.6 94.7,269.6 
		80.8,268.3 72.2,267.5 72.2,187.4 	"/>
	<polygon class="st2" points="225.5,238.7 175.5,277.5 175.5,197.4 225.5,158.7 	"/>
	<g>
		<path class="st2" d="M123.4,153.1v7.1c0,3.4,7.4,6.1,16.4,6.1s16.4-2.7,16.4-6.1v-7.1H123.4z"/>
		<ellipse class="st1" cx="139.8" cy="153.1" rx="16.4" ry="6.1"/>
	</g>
	<g>
		<path class="st2" d="M97.4,172.4v7.1c0,3.4,7.4,6.1,16.4,6.1s16.4-2.7,16.4-6.1v-7.1H97.4z"/>
		<ellipse class="st1" cx="113.8" cy="172.4" rx="16.4" ry="6.1"/>
	</g>
	<g>
		<path class="st2" d="M170.6,157.1v7.1c0,3.4,7.4,6.1,16.4,6.1c9.1,0,16.4-2.7,16.4-6.1v-7.1H170.6z"/>
		<ellipse class="st1" cx="187.1" cy="157.1" rx="16.4" ry="6.1"/>
	</g>
	<g>
		<path class="st2" d="M144.6,176.4v7.1c0,3.4,7.4,6.1,16.4,6.1c9.1,0,16.4-2.7,16.4-6.1v-7.1H144.6z"/>
		<ellipse class="st1" cx="161.1" cy="176.4" rx="16.4" ry="6.1"/>
	</g>
	<g>
		<path class="st3" d="M104.5,265.5v5.1l19.6,1.9v-5.1L104.5,265.5z M106.4,243c-13.7-1.4-25.6,7.4-25.6,24.8c0,0.2,0,0.4,0,0.5
			l13.9,1.4c0-0.3,0-0.7,0-1c0-9.4,5.2-14.5,12.2-13.8c4.1,0.4,6.6,2.3,9.2,4.7l7.1-8.1C119.5,247.5,113.9,243.7,106.4,243z"/>
		<path class="st3" d="M155.6,247.9c-14.2-1.4-23.9,7.2-23.9,24.3c0,0.4,0,0.7,0,1.1l13.9,1.4c0-0.4,0-0.7,0-1.1
			c0-9.4,3.8-14.5,9.9-13.9c6.1,0.6,9.9,6.4,9.9,15.8c0,0.3,0,0.7,0,1l9.9,1v-17.3C171.4,253.1,164.4,248.7,155.6,247.9z"/>
	</g>
</g>
</svg>
