<?xml version="1.0" encoding="utf-8"?>
<!-- Generator: Adobe Illustrator 21.0.0, SVG Export Plug-In . SVG Version: 6.00 Build 0)  -->
<svg version="1.1" xmlns="http://www.w3.org/2000/svg" xmlns:xlink="http://www.w3.org/1999/xlink" x="0px" y="0px"
	 viewBox="0 0 800 800" style="enable-background:new 0 0 800 800;" xml:space="preserve">
<style type="text/css">
	.st0{fill:#C86F2A;}
	.st1{opacity:0.3;fill:#8F4900;}
	.st2{fill:#8F4900;}
	.st3{fill:#E2842E;}
	.st4{fill:#E98E30;}
	.st5{fill:#6B3700;}
	.st6{display:none;clip-path:url(#XMLID_5_);}
	.st7{display:inline;}
	.st8{display:none;opacity:0.5;clip-path:url(#XMLID_5_);}
	.st9{opacity:0.5;}
	.st10{fill:#FFEAC2;}
	.st11{fill:none;stroke:#070500;stroke-width:3;stroke-linecap:round;stroke-miterlimit:10;}
	.st12{fill:#FFADCB;}
	.st13{fill:#070500;}
	.st14{opacity:0.4;fill:#BFBFBF;}
	.st15{fill:#FFFFFF;}
	.st16{display:none;opacity:0.4;fill:#FFFFFF;}
	.st17{fill:#361C00;}
	.st18{display:none;opacity:0.3;fill:#FFFFFF;}
	.st19{font-family:'QuicksandDash-Regular';}
	.st20{font-size:59.9401px;}
</style>
<g id="Background">
</g>
<g id="Objects">
	<g>
		<g>
			<g>
				<g>
					<g>
						<path class="st0" d="M296.6,414.5c-0.8,0-1.7,0-2.6,0.1c-16.6,1.7-44.4,19.5-76.5,66.9c-30.5,45.1-56.2,85.2-59.2,118
							c-3,32.9,29.5,92.9,99.9,54.1"/>
						<path class="st1" d="M243.3,459.4c-9.9,11.8-18.6,24.4-25.7,38.1c-6.9,14.8-12.1,30.4-15.5,46.4c-3.3,19.1-4.6,38.7-3.6,58.1
							c1,11.1,2.9,22.1,6.3,32.7c1.7,4.3,3.7,8.5,6.1,12.5c1.4,1.8,3,3.6,4.6,5.3c1.2,0.9,2.5,1.8,3.8,2.6c1.6,0.6,3.3,1.2,5,1.7
							c3.5,0.4,6.9,0.5,10.4,0.5c8-1,15.9-2.9,23.7-5l38.1-237.6c-0.8,0-1.7,0-2.6,0.1c-0.1,0-0.3,0-0.4,0.1
							C275.8,428.5,258.5,442.8,243.3,459.4z"/>
						<path class="st2" d="M233.9,506.1c-5,16.2-10,32.4-13.5,49c-2.2,12.6-3.3,25.4-2.9,38.3c1.3,10.4,4,20.6,6.9,30.7
							c1.4,3.3,3.1,6.6,5,9.7c5.8,7.7,12.5,14.5,19.2,21.5c0.7,0.8,1.4,1.5,2.1,2.3c2.4-1.2,4.9-2.4,7.5-3.8l37.4-233.3
							C289.5,422.8,238.3,491.9,233.9,506.1z"/>
					</g>
					<g>
						<path class="st0" d="M507,414.5c0.8,0,1.7,0.1,2.6,0.3c16.5,2.7,51.1,24.2,75.4,72.2c24.6,48.6,48,87.5,49,120.5
							s-35,91-103,48"/>
						<path class="st1" d="M557.5,462.5c9.2,12.3,17.1,25.5,23.4,39.5c6,15.2,10.2,31.1,12.7,47.2c2.2,19.3,2.3,38.9,0.1,58.2
							c-1.7,11-4.3,21.9-8.2,32.3c-2,4.2-4.3,8.3-6.9,12.1c-1.5,1.8-3.2,3.4-4.9,5c-1.3,0.8-2.6,1.6-4,2.3c-1.7,0.5-3.4,1-5.1,1.4
							c-3.5,0.2-6.9,0.1-10.4-0.2c-7.9-1.5-15.7-3.9-23.3-6.5L507,414.5c0.8,0,1.7,0.1,2.6,0.3c0.1,0,0.3,0.1,0.4,0.1
							C526.9,429.7,543.3,445,557.5,462.5z"/>
						<path class="st2" d="M564,509.6c4,16.4,8,33,10.6,49.7c1.4,12.8,1.8,25.6,0.6,38.4c-1.9,10.3-5.2,20.3-8.7,30.2
							c-1.6,3.2-3.5,6.4-5.6,9.4c-6.2,7.3-13.4,13.7-20.4,20.3c-0.8,0.7-1.5,1.4-2.3,2.2c-2.4-1.3-4.8-2.7-7.2-4.3l-23.4-235.1
							C513.5,423.2,560.5,495.2,564,509.6z"/>
					</g>
					<path class="st0" d="M549,492.5c-22.3-40-38.1-61.3-41.1-82c-0.1-0.7-3.8-9.4-3.9-10l-104,10l-104-10c-0.1,0.7-3.8,9.3-3.9,10
						c-3.1,20.6-18.8,42-41.1,82c-20.7,37.1-74.5,200,149,200S569.7,529.6,549,492.5z"/>
					<path class="st3" d="M529.7,502c-19.4-38.1-54.8-48.6-128.9-48.6S289.7,464,270.3,502c-18,35.3-64.9,190.4,129.7,190.4
						S547.7,537.3,529.7,502z"/>
					<path class="st4" d="M504.9,510.3c-15.7-36.4-53.1-27.9-104.1-27.9s-90-8.5-105.8,27.9c-14.6,33.8-52.5,182.2,104.9,182.2
						S519.5,544.1,504.9,510.3z"/>
					<path class="st2" d="M291.7,414c0,0,26.3,27,107.8,27S511,414,511,414H291.7z"/>
					<g>
						<g>
							<path class="st0" d="M480,162.1c0,0-7.4-56.7,45-66c52.4-9.3,102.6,79.5,22.8,112L480,162.1z"/>
							<path class="st1" d="M496.6,157.9c0-13.8,5.5-27.2,15.3-37c9.8-9.8,23.1-15.3,37-15.3c5.9,0,11.7,1,17.2,2.9
								c-11.6-9.8-26.5-15.2-41.5-12.6c-52.4,9.3-45,66-45,66l20.1,13.7C497.6,170.1,496.6,164.2,496.6,157.9z"/>
							<path class="st2" d="M502.7,159.3c0,0,10.3-28.3,33.3-28.2c22.9,0.1,29.1,39.9-3,51.9"/>
							<path class="st5" d="M519.7,149.2c5.1-5.1,12.2-8,19.4-8c2.4,0,4.8,0.3,7,0.9c2.5,0.6,4.9,1.5,7.2,2.8
								c-2.7-7.9-9-13.8-17.8-13.8c-22.9-0.1-33.3,28.2-33.3,28.2l9.4,7.4C512.2,160.1,515,153.9,519.7,149.2z"/>
						</g>
						<g>
							<path class="st0" d="M321,162.1c0,0,7.4-56.7-45-66c-52.4-9.3-102.6,79.5-22.8,112L321,162.1z"/>
							<path class="st1" d="M303.6,157.9c0-13.8-5.5-27.2-15.3-37c-9.8-9.8-23.1-15.3-37-15.3c-5.9,0-11.7,1-17.2,2.9
								c11.6-9.8,26.5-15.2,41.5-12.6c52.4,9.3,45,66,45,66l-20.1,13.7C302.5,170.1,303.5,164.2,303.6,157.9z"/>
							<path class="st2" d="M298.3,159.3c0,0-10.3-28.3-33.3-28.2c-22.9,0.1-29.1,39.9,3,51.9"/>
							<path class="st5" d="M280.5,149.2c-5.1-5.1-12.2-8-19.4-8c-2.4,0-4.8,0.3-7,0.9c-2.5,0.6-4.9,1.5-7.2,2.8
								c2.7-7.9,9-13.8,17.8-13.8c22.9-0.1,33.3,28.2,33.3,28.2l-9.4,7.4C288,160.1,285.1,153.9,280.5,149.2z"/>
						</g>
						<g>
							<defs>
								<path id="XMLID_1_" d="M581.7,308c0,84.4-81.3,126.1-181.6,126.1S218.4,392.4,218.4,308c0-84.4,81.3-188.3,181.6-188.3
									S581.7,223.7,581.7,308z"/>
							</defs>
							<use xlink:href="#XMLID_1_"  style="overflow:visible;fill:#C86F2A;"/>
							<clipPath id="XMLID_5_">
								<use xlink:href="#XMLID_1_"  style="overflow:visible;"/>
							</clipPath>
							<g class="st6">
								<defs>
									<path id="XMLID_2_" d="M573.7,322.2c0,84.4-77.1,126.1-172.2,126.1c-95.1,0-172.2-41.7-172.2-126.1S306.4,134,401.5,134
										C496.6,134,573.7,237.9,573.7,322.2z"/>
								</defs>
								<use xlink:href="#XMLID_2_"  style="display:inline;overflow:visible;fill:#FFB088;"/>
								<clipPath id="XMLID_6_" class="st7">
									<use xlink:href="#XMLID_2_"  style="overflow:visible;"/>
								</clipPath>
							</g>
							<g class="st8">
								<defs>
									<path id="XMLID_3_" class="st9" d="M547,318.7c0,71.9-65.2,107.5-145.6,107.5c-80.4,0-145.6-35.6-145.6-107.5
										c0-71.9,65.2-160.4,145.6-160.4C481.9,158.3,547,246.8,547,318.7z"/>
								</defs>
								<use xlink:href="#XMLID_3_"  style="display:inline;overflow:visible;fill:#FFB088;"/>
								<clipPath id="XMLID_7_" class="st7">
									<use xlink:href="#XMLID_3_"  style="overflow:visible;"/>
								</clipPath>
							</g>
						</g>
						<path class="st10" d="M506.7,309.4C535,340.9,517,423.8,402,423.8c-115.1,0-135.7-76.1-111.2-111.4
							c12.4-17.9,42.6-43.4,104.4-43.4C457,268.9,486.8,287.3,506.7,309.4z"/>
						<g>
							<path class="st11" d="M378,267.6c12,0,21.5,9.7,21.5,21.8v75.5c0,12-9.5,21.8-21.5,21.8l0,0c-12,0-21.8-9.7-21.8-21.8"/>
							<path class="st11" d="M421.5,267.6c-12,0-22,9.7-22,21.8v75.5c0,12,10,21.8,22,21.8l0,0c12,0,21.8-9.7,21.8-21.8"/>
						</g>
						<g>
							<circle class="st12" cx="322.8" cy="328.5" r="24"/>
							<circle class="st12" cx="477.3" cy="328.5" r="24"/>
						</g>
						<g>
							<g>
								<g>
									<circle class="st13" cx="328.6" cy="258.2" r="14.3"/>
									<circle class="st14" cx="332.1" cy="261.8" r="9"/>
								</g>
								<circle class="st15" cx="325.9" cy="255.5" r="3.3"/>
							</g>
							<g>
								<g>
									<circle class="st13" cx="471.5" cy="258.2" r="14.3"/>
									<circle class="st14" cx="475.1" cy="261.8" r="9"/>
								</g>
								<circle class="st15" cx="468.9" cy="255.5" r="3.3"/>
							</g>
						</g>
						<path class="st16" d="M488.4,324.3c24.7,27.5,9,99.9-91.5,99.9s-118.5-66.5-97.2-97.4c10.8-15.7,37.2-37.9,91.2-37.9
							C444.9,289,471,305,488.4,324.3z"/>
						<path class="st17" d="M400.1,256.5c-27.7,0-54.7,9.1-37,28.9c17.8,19.8,24.2,25.8,37,25.8c12.8,0,19.2-6.1,37-25.8
							C454.8,265.6,427.8,256.5,400.1,256.5z"/>
						<path class="st5" d="M400.1,262.7c-24.6,0-48.6,8.2-32.8,26.1c15.8,17.8,21.5,23.3,32.8,23.3c11.4,0,17.1-5.5,32.8-23.3
							C448.7,271,424.7,262.7,400.1,262.7z"/>
						<path class="st18" d="M457.6,339.2c20.2,22.4,7.4,81.6-74.7,81.6c-82.1,0-96.8-54.3-79.3-79.5c8.8-12.8,30.4-31,74.5-31
							C422.1,310.3,443.4,323.4,457.6,339.2z"/>
					</g>
					<g>
						<path class="st0" d="M256.7,699.4c0,0,20.7-13.9,33.3-28.2c9.6-10.9,15.1-53.8,4.2-78.7c-16.4-37.7-23.1-18.9-61-47.3
							C217,585.6,256.7,699.4,256.7,699.4z"/>
						<g>
							<path class="st2" d="M204.8,536.5c-40.3,0-70,29.5-77.3,79c-7.3,49.5,32.5,106.4,88.2,103c55.7-3.4,77.1-65.9,61.8-110.9
								C262.3,562.6,232.6,536.5,204.8,536.5z"/>
							<path class="st4" d="M198.5,546.1c-37,0-64.3,27.9-71,74.8c-6.7,46.9,29.8,100.8,81,97.5c51.2-3.2,70.8-62.4,56.8-105
								C251.3,570.9,224,546.1,198.5,546.1z"/>
							<path class="st10" d="M198.6,598.2c-26.5,0-46,17.7-50.8,47.4c-4.8,29.7,21.4,63.9,58,61.8c36.6-2,50.7-39.6,40.7-66.6
								C236.4,613.9,216.8,598.2,198.6,598.2z"/>
						</g>
					</g>
					<g>
						<path class="st0" d="M543.3,699.4c0,0-20.7-13.9-33.3-28.2c-9.6-10.9-15.1-53.8-4.2-78.7c16.4-37.7,23.1-18.9,61-47.3
							C583,585.6,543.3,699.4,543.3,699.4z"/>
						<g>
							<path class="st2" d="M595.2,536.5c40.3,0,70,29.5,77.3,79c7.3,49.5-32.5,106.4-88.2,103c-55.7-3.4-77.1-65.9-61.8-110.9
								C537.7,562.6,567.4,536.5,595.2,536.5z"/>
							<path class="st4" d="M601.5,546.1c37,0,64.3,27.9,71,74.8c6.7,46.9-29.8,100.8-81,97.5c-51.2-3.2-70.8-62.4-56.8-105
								C548.7,570.9,576,546.1,601.5,546.1z"/>
							<path class="st10" d="M601.4,598.2c26.5,0,46,17.7,50.8,47.4c4.8,29.7-21.4,63.9-58,61.8c-36.6-2-50.7-39.6-40.7-66.6
								C563.6,613.9,583.2,598.2,601.4,598.2z"/>
						</g>
					</g>
				</g>
				<text transform="matrix(1 0 0 1 301.6089 574.8594)" class="st10 st19 st20">TEDDY</text>
			</g>
		</g>
	</g>
</g>
</svg>
