<?xml version="1.0" encoding="utf-8"?>
<!-- Generator: Adobe Illustrator 21.0.0, SVG Export Plug-In . SVG Version: 6.00 Build 0)  -->
<svg version="1.1" id="Objects" xmlns="http://www.w3.org/2000/svg" xmlns:xlink="http://www.w3.org/1999/xlink" x="0px" y="0px"
	 viewBox="0 0 800 800" style="enable-background:new 0 0 800 800;" xml:space="preserve">
<style type="text/css">
	.st0{fill:#F3694C;}
	.st1{fill:#613E2A;}
	.st2{fill:#F2BF63;}
	.st3{fill:#F3F0E9;}
</style>
<g>
	<path class="st0" d="M393.3,605.4c-0.7-0.3-1.4-0.5-2-0.8c-3.6,4.4-9.2,7.2-15.3,7.2c-11,0-19.9-8.9-19.9-19.9
		c0-11,8.9-19.9,19.9-19.9c6.2,0,11.7,2.8,15.3,7.2c0.7-0.2,1.4-0.5,2-0.8c0.8-17,3-33.9,6.7-50.5v0c0,0,0,0,0,0
		c-16.7-3.7-33.6-6-50.5-6.8c-0.3-0.7-0.5-1.3-0.8-2c4.4-3.6,7.2-9.2,7.2-15.3c0-11-8.9-19.9-19.9-19.9c-11,0-19.9,8.9-19.9,19.9
		c0,6.2,2.8,11.7,7.2,15.3c-0.2,0.7-0.5,1.4-0.8,2c-17,0.8-33.9,3-50.5,6.8c0,0,0,0,0,0v0c3.7,16.7,6,33.6,6.7,50.5
		c0.7,0.3,1.3,0.5,2,0.8c3.6-4.4,9.2-7.2,15.3-7.2c11,0,19.9,8.9,19.9,19.9c0,11-8.9,19.9-19.9,19.9c-6.2,0-11.7-2.8-15.3-7.2
		c-0.7,0.2-1.4,0.5-2,0.8c-0.8,17-3,33.9-6.7,50.5v0v0h0c16.7,3.7,33.5,6,50.5,6.7c0.3,0.7,0.5,1.3,0.8,2c-4.4,3.6-7.2,9.2-7.2,15.3
		c0,11,8.9,19.9,19.9,19.9c11,0,19.9-8.9,19.9-19.9c0-6.2-2.8-11.7-7.2-15.3c0.2-0.7,0.5-1.4,0.8-2c17-0.8,33.8-3,50.5-6.7h0v0v0
		C396.3,639.3,394,622.4,393.3,605.4z"/>
	<path class="st1" d="M265.3,477.4c-0.7-0.3-1.3-0.5-2-0.8c-3.6,4.4-9.2,7.2-15.3,7.2c-11,0-19.9-8.9-19.9-19.9
		c0-11,8.9-19.9,19.9-19.9c6.2,0,11.7,2.8,15.3,7.2c0.7-0.2,1.4-0.5,2-0.8c0.8-17,3-33.9,6.7-50.5v0c0,0,0,0,0,0
		c-16.7-3.7-33.6-6-50.5-6.8c-0.3-0.7-0.5-1.4-0.8-2c4.4-3.6,7.2-9.2,7.2-15.3c0-11-8.9-19.9-19.9-19.9c-11,0-19.9,8.9-19.9,19.9
		c0,6.2,2.8,11.7,7.2,15.3c-0.2,0.7-0.5,1.4-0.8,2c-17,0.8-33.9,3-50.5,6.8c0,0,0,0,0,0v0c3.7,16.7,6,33.6,6.7,50.5
		c0.7,0.3,1.3,0.5,2,0.8c3.6-4.4,9.2-7.2,15.3-7.2c11,0,19.9,8.9,19.9,19.9c0,11-8.9,19.9-19.9,19.9c-6.2,0-11.7-2.8-15.3-7.2
		c-0.7,0.2-1.4,0.5-2,0.8c-0.8,17-3,33.9-6.7,50.5v0v0h0c16.7,3.7,33.5,6,50.5,6.7c0.3,0.7,0.5,1.3,0.8,2c-4.4,3.6-7.2,9.2-7.2,15.3
		c0,11,8.9,19.9,19.9,19.9c11,0,19.9-8.9,19.9-19.9c0-6.2-2.8-11.7-7.2-15.3c0.2-0.7,0.5-1.4,0.8-2c17-0.8,33.8-3,50.5-6.7h0v0v0
		C268.3,511.3,266,494.4,265.3,477.4z"/>
	<path class="st2" d="M194.6,649.2c0.3-0.7,0.5-1.3,0.8-2c-4.4-3.6-7.2-9.2-7.2-15.3c0-11,8.9-19.9,19.9-19.9
		c11,0,19.9,8.9,19.9,19.9c0,6.2-2.8,11.7-7.2,15.3c0.2,0.7,0.5,1.4,0.8,2c17,0.8,33.9,3,50.5,6.7h0c0,0,0,0,0,0
		c3.7-16.7,6-33.6,6.7-50.5c0.7-0.3,1.3-0.5,2-0.8c3.6,4.4,9.2,7.2,15.3,7.2c11,0,19.9-8.9,19.9-19.9c0-11-8.9-19.9-19.9-19.9
		c-6.2,0-11.7,2.8-15.3,7.2c-0.7-0.2-1.4-0.5-2-0.8c-0.8-17-3-33.9-6.7-50.5c0,0,0,0,0,0h0c-16.7,3.7-33.6,6-50.5,6.7
		c-0.3,0.7-0.5,1.3-0.8,2c4.4,3.6,7.2,9.2,7.2,15.3c0,11-8.9,19.9-19.9,19.9c-11,0-19.9-8.9-19.9-19.9c0-6.2,2.8-11.7,7.2-15.3
		c-0.2-0.7-0.5-1.4-0.8-2c-17-0.8-33.9-3-50.5-6.7h0h0v0c-3.7,16.7-6,33.6-6.7,50.5c-0.7,0.3-1.4,0.5-2,0.8
		c-3.6-4.4-9.2-7.2-15.3-7.2c-11,0-19.9,8.9-19.9,19.9s8.9,19.9,19.9,19.9c6.2,0,11.7-2.8,15.3-7.2c0.7,0.2,1.4,0.5,2,0.8
		c0.8,17,3,33.8,6.7,50.5v0h0h0C160.7,652.3,177.6,650,194.6,649.2z"/>
	<path class="st3" d="M322.6,521.2c0.3-0.7,0.5-1.3,0.8-2c-4.4-3.6-7.2-9.2-7.2-15.3c0-11,8.9-19.9,19.9-19.9
		c11,0,19.9,8.9,19.9,19.9c0,6.2-2.8,11.7-7.2,15.3c0.2,0.7,0.5,1.4,0.8,2c17,0.8,33.9,3,50.5,6.7h0c0,0,0,0,0,0
		c3.7-16.7,6-33.6,6.8-50.5c0.7-0.3,1.3-0.5,2-0.8c3.6,4.4,9.2,7.2,15.3,7.2c11,0,19.9-8.9,19.9-19.9c0-11-8.9-19.9-19.9-19.9
		c-6.2,0-11.7,2.8-15.3,7.2c-0.7-0.2-1.4-0.5-2-0.8c-0.8-17-3-33.9-6.8-50.5c0,0,0,0,0,0h0c-16.7,3.7-33.6,6-50.5,6.7
		c-0.3,0.7-0.5,1.4-0.8,2c4.4,3.6,7.2,9.2,7.2,15.3c0,11-8.9,19.9-19.9,19.9c-11,0-19.9-8.9-19.9-19.9c0-6.2,2.8-11.7,7.2-15.3
		c-0.2-0.7-0.5-1.4-0.8-2c-17-0.8-33.9-3-50.5-6.7h0h0v0c-3.7,16.7-6,33.5-6.7,50.5c-0.7,0.3-1.4,0.5-2,0.8
		c-3.6-4.4-9.2-7.2-15.3-7.2c-11,0-19.9,8.9-19.9,19.9s8.9,19.9,19.9,19.9c6.2,0,11.7-2.8,15.3-7.2c0.7,0.2,1.4,0.5,2,0.8
		c0.8,17,3,33.8,6.7,50.5v0h0h0C288.7,524.3,305.6,522,322.6,521.2z"/>
	<path class="st3" d="M649.2,605.4c-0.7-0.3-1.4-0.5-2-0.8c-3.6,4.4-9.2,7.2-15.3,7.2c-11,0-19.9-8.9-19.9-19.9
		c0-11,8.9-19.9,19.9-19.9c6.2,0,11.7,2.8,15.3,7.2c0.7-0.2,1.4-0.5,2-0.8c0.8-17,3-33.9,6.7-50.5v0c0,0,0,0,0,0
		c-16.7-3.7-33.6-6-50.5-6.8c-0.3-0.7-0.5-1.3-0.8-2c4.4-3.6,7.2-9.2,7.2-15.3c0-11-8.9-19.9-19.9-19.9c-11,0-19.9,8.9-19.9,19.9
		c0,6.2,2.8,11.7,7.2,15.3c-0.2,0.7-0.5,1.4-0.8,2c-17,0.8-33.9,3-50.5,6.8c0,0,0,0,0,0v0c3.7,16.7,6,33.6,6.7,50.5
		c0.7,0.3,1.3,0.5,2,0.8c3.6-4.4,9.2-7.2,15.3-7.2c11,0,19.9,8.9,19.9,19.9c0,11-8.9,19.9-19.9,19.9c-6.2,0-11.7-2.8-15.3-7.2
		c-0.7,0.2-1.4,0.5-2,0.8c-0.8,17-3,33.9-6.7,50.5v0v0h0c16.7,3.7,33.5,6,50.5,6.7c0.3,0.7,0.5,1.3,0.8,2c-4.4,3.6-7.2,9.2-7.2,15.3
		c0,11,8.9,19.9,19.9,19.9c11,0,19.9-8.9,19.9-19.9c0-6.2-2.8-11.7-7.2-15.3c0.2-0.7,0.5-1.4,0.8-2c17-0.8,33.8-3,50.5-6.7h0v0v0
		C652.2,639.3,650,622.4,649.2,605.4z"/>
	<path class="st0" d="M521.2,477.4c-0.7-0.3-1.3-0.5-2-0.8c-3.6,4.4-9.2,7.2-15.3,7.2c-11,0-19.9-8.9-19.9-19.9
		c0-11,8.9-19.9,19.9-19.9c6.2,0,11.7,2.8,15.3,7.2c0.7-0.2,1.4-0.5,2-0.8c0.8-17,3-33.9,6.7-50.5v0c0,0,0,0,0,0
		c-16.7-3.7-33.6-6-50.5-6.8c-0.3-0.7-0.5-1.4-0.8-2c4.4-3.6,7.2-9.2,7.2-15.3c0-11-8.9-19.9-19.9-19.9c-11,0-19.9,8.9-19.9,19.9
		c0,6.2,2.8,11.7,7.2,15.3c-0.2,0.7-0.5,1.4-0.8,2c-17,0.8-33.9,3-50.5,6.8c0,0,0,0,0,0v0c3.7,16.7,6,33.6,6.7,50.5
		c0.7,0.3,1.3,0.5,2,0.8c3.6-4.4,9.2-7.2,15.3-7.2c11,0,19.9,8.9,19.9,19.9c0,11-8.9,19.9-19.9,19.9c-6.2,0-11.7-2.8-15.3-7.2
		c-0.7,0.2-1.4,0.5-2,0.8c-0.8,17-3,33.9-6.7,50.5v0v0h0c16.7,3.7,33.5,6,50.5,6.7c0.3,0.7,0.5,1.3,0.8,2c-4.4,3.6-7.2,9.2-7.2,15.3
		c0,11,8.9,19.9,19.9,19.9c11,0,19.9-8.9,19.9-19.9c0-6.2-2.8-11.7-7.2-15.3c0.2-0.7,0.5-1.4,0.8-2c17-0.8,33.8-3,50.5-6.7h0v0v0
		C524.3,511.3,522,494.4,521.2,477.4z"/>
	<path class="st1" d="M450.5,649.2c0.3-0.7,0.5-1.3,0.8-2c-4.4-3.6-7.2-9.2-7.2-15.3c0-11,8.9-19.9,19.9-19.9
		c11,0,19.9,8.9,19.9,19.9c0,6.2-2.8,11.7-7.2,15.3c0.2,0.7,0.5,1.4,0.8,2c17,0.8,33.9,3,50.5,6.7h0c0,0,0,0,0,0
		c3.7-16.7,6-33.6,6.7-50.5c0.7-0.3,1.3-0.5,2-0.8c3.6,4.4,9.2,7.2,15.3,7.2c11,0,19.9-8.9,19.9-19.9c0-11-8.9-19.9-19.9-19.9
		c-6.2,0-11.7,2.8-15.3,7.2c-0.7-0.2-1.4-0.5-2-0.8c-0.8-17-3-33.9-6.7-50.5c0,0,0,0,0,0h0c-16.7,3.7-33.6,6-50.5,6.7
		c-0.3,0.7-0.5,1.3-0.8,2c4.4,3.6,7.2,9.2,7.2,15.3c0,11-8.9,19.9-19.9,19.9c-11,0-19.9-8.9-19.9-19.9c0-6.2,2.8-11.7,7.2-15.3
		c-0.2-0.7-0.5-1.4-0.8-2c-17-0.8-33.9-3-50.5-6.7h0h0v0c-3.7,16.7-6,33.6-6.7,50.5c-0.7,0.3-1.4,0.5-2,0.8
		c-3.6-4.4-9.2-7.2-15.3-7.2c-11,0-19.9,8.9-19.9,19.9s8.9,19.9,19.9,19.9c6.2,0,11.7-2.8,15.3-7.2c0.7,0.2,1.4,0.5,2,0.8
		c0.8,17,3,33.8,6.7,50.5v0h0h0C416.7,652.3,433.6,650,450.5,649.2z"/>
	<path class="st2" d="M578.5,521.2c0.3-0.7,0.5-1.3,0.8-2c-4.4-3.6-7.2-9.2-7.2-15.3c0-11,8.9-19.9,19.9-19.9
		c11,0,19.9,8.9,19.9,19.9c0,6.2-2.8,11.7-7.2,15.3c0.2,0.7,0.5,1.4,0.8,2c17,0.8,33.9,3,50.5,6.7h0l0,0c3.7-16.7,6-33.6,6.8-50.5
		c0.7-0.3,1.3-0.5,2-0.8c3.6,4.4,9.2,7.2,15.3,7.2c11,0,19.9-8.9,19.9-19.9c0-11-8.9-19.9-19.9-19.9c-6.2,0-11.7,2.8-15.3,7.2
		c-0.7-0.2-1.4-0.5-2-0.8c-0.8-17-3-33.9-6.8-50.5l0,0h0c-16.7,3.7-33.6,6-50.5,6.7c-0.3,0.7-0.5,1.4-0.8,2
		c4.4,3.6,7.2,9.2,7.2,15.3c0,11-8.9,19.9-19.9,19.9c-11,0-19.9-8.9-19.9-19.9c0-6.2,2.8-11.7,7.2-15.3c-0.2-0.7-0.5-1.4-0.8-2
		c-17-0.8-33.9-3-50.5-6.7h0h0v0c-3.7,16.7-6,33.5-6.7,50.5c-0.7,0.3-1.4,0.5-2,0.8c-3.6-4.4-9.2-7.2-15.3-7.2
		c-11,0-19.9,8.9-19.9,19.9s8.9,19.9,19.9,19.9c6.2,0,11.7-2.8,15.3-7.2c0.7,0.2,1.4,0.5,2,0.8c0.8,17,3,33.8,6.7,50.5v0h0h0
		C544.7,524.3,561.6,522,578.5,521.2z"/>
	<path class="st2" d="M393.3,349.5c-0.7-0.3-1.4-0.5-2-0.8c-3.6,4.4-9.2,7.2-15.3,7.2c-11,0-19.9-8.9-19.9-19.9
		c0-11,8.9-19.9,19.9-19.9c6.2,0,11.7,2.8,15.3,7.2c0.7-0.2,1.4-0.5,2-0.8c0.8-17,3-33.9,6.7-50.5v0c0,0,0,0,0,0
		c-16.7-3.7-33.6-6-50.5-6.7c-0.3-0.7-0.5-1.4-0.8-2c4.4-3.6,7.2-9.2,7.2-15.3c0-11-8.9-19.9-19.9-19.9c-11,0-19.9,8.9-19.9,19.9
		c0,6.2,2.8,11.7,7.2,15.3c-0.2,0.7-0.5,1.4-0.8,2c-17,0.8-33.9,3-50.5,6.7c0,0,0,0,0,0v0c3.7,16.7,6,33.6,6.7,50.5
		c0.7,0.3,1.3,0.5,2,0.8c3.6-4.4,9.2-7.2,15.3-7.2c11,0,19.9,8.9,19.9,19.9c0,11-8.9,19.9-19.9,19.9c-6.2,0-11.7-2.8-15.3-7.2
		c-0.7,0.2-1.4,0.5-2,0.8c-0.8,17-3,33.9-6.7,50.5v0v0h0c16.7,3.7,33.5,6,50.5,6.7c0.3,0.7,0.5,1.3,0.8,2c-4.4,3.6-7.2,9.2-7.2,15.3
		c0,11,8.9,19.9,19.9,19.9c11,0,19.9-8.9,19.9-19.9c0-6.2-2.8-11.7-7.2-15.3c0.2-0.7,0.5-1.4,0.8-2c17-0.8,33.8-3,50.5-6.7h0v0v0
		C396.3,383.3,394,366.4,393.3,349.5z"/>
	<path class="st3" d="M265.3,221.5c-0.7-0.3-1.3-0.5-2-0.8c-3.6,4.4-9.2,7.2-15.3,7.2c-11,0-19.9-8.9-19.9-19.9
		c0-11,8.9-19.9,19.9-19.9c6.2,0,11.7,2.8,15.3,7.2c0.7-0.2,1.4-0.5,2-0.8c0.8-17,3-33.9,6.7-50.5v0c0,0,0,0,0,0
		c-16.7-3.7-33.6-6-50.5-6.8c-0.3-0.7-0.5-1.3-0.8-2c4.4-3.6,7.2-9.2,7.2-15.3c0-11-8.9-19.9-19.9-19.9c-11,0-19.9,8.9-19.9,19.9
		c0,6.2,2.8,11.7,7.2,15.3c-0.2,0.7-0.5,1.4-0.8,2c-17,0.8-33.9,3-50.5,6.8c0,0,0,0,0,0v0c3.7,16.7,6,33.6,6.7,50.5
		c0.7,0.3,1.3,0.5,2,0.8c3.6-4.4,9.2-7.2,15.3-7.2c11,0,19.9,8.9,19.9,19.9c0,11-8.9,19.9-19.9,19.9c-6.2,0-11.7-2.8-15.3-7.2
		c-0.7,0.2-1.4,0.5-2,0.8c-0.8,17-3,33.9-6.7,50.5v0v0h0c16.7,3.7,33.5,6,50.5,6.7c0.3,0.7,0.5,1.3,0.8,2c-4.4,3.6-7.2,9.2-7.2,15.3
		c0,11,8.9,19.9,19.9,19.9c11,0,19.9-8.9,19.9-19.9c0-6.2-2.8-11.7-7.2-15.3c0.2-0.7,0.5-1.4,0.8-2c17-0.8,33.8-3,50.5-6.7h0v0v0
		C268.3,255.3,266,238.4,265.3,221.5z"/>
	<path class="st0" d="M194.6,393.3c0.3-0.7,0.5-1.4,0.8-2c-4.4-3.6-7.2-9.2-7.2-15.3c0-11,8.9-19.9,19.9-19.9
		c11,0,19.9,8.9,19.9,19.9c0,6.2-2.8,11.7-7.2,15.3c0.2,0.7,0.5,1.4,0.8,2c17,0.8,33.9,3,50.5,6.7h0c0,0,0,0,0,0
		c3.7-16.7,6-33.6,6.7-50.5c0.7-0.3,1.3-0.5,2-0.8c3.6,4.4,9.2,7.2,15.3,7.2c11,0,19.9-8.9,19.9-19.9c0-11-8.9-19.9-19.9-19.9
		c-6.2,0-11.7,2.8-15.3,7.2c-0.7-0.2-1.4-0.5-2-0.8c-0.8-17-3-33.9-6.7-50.5c0,0,0,0,0,0h0c-16.7,3.7-33.6,6-50.5,6.7
		c-0.3,0.7-0.5,1.4-0.8,2c4.4,3.6,7.2,9.2,7.2,15.3c0,11-8.9,19.9-19.9,19.9c-11,0-19.9-8.9-19.9-19.9c0-6.2,2.8-11.7,7.2-15.3
		c-0.2-0.7-0.5-1.4-0.8-2c-17-0.8-33.9-3-50.5-6.7h0h0v0c-3.7,16.7-6,33.5-6.7,50.5c-0.7,0.3-1.4,0.5-2,0.8
		c-3.6-4.4-9.2-7.2-15.3-7.2c-11,0-19.9,8.9-19.9,19.9c0,11,8.9,19.9,19.9,19.9c6.2,0,11.7-2.8,15.3-7.2c0.7,0.2,1.4,0.5,2,0.8
		c0.8,17,3,33.8,6.7,50.5v0h0h0C160.7,396.3,177.6,394,194.6,393.3z"/>
	<path class="st1" d="M322.6,265.3c0.3-0.7,0.5-1.4,0.8-2c-4.4-3.6-7.2-9.2-7.2-15.3c0-11,8.9-19.9,19.9-19.9
		c11,0,19.9,8.9,19.9,19.9c0,6.2-2.8,11.7-7.2,15.3c0.2,0.7,0.5,1.4,0.8,2c17,0.8,33.9,3,50.5,6.7h0c0,0,0,0,0,0
		c3.7-16.7,6-33.6,6.8-50.5c0.7-0.3,1.3-0.5,2-0.8c3.6,4.4,9.2,7.2,15.3,7.2c11,0,19.9-8.9,19.9-19.9c0-11-8.9-19.9-19.9-19.9
		c-6.2,0-11.7,2.8-15.3,7.2c-0.7-0.2-1.4-0.5-2-0.8c-0.8-17-3-33.9-6.8-50.5c0,0,0,0,0,0h0c-16.7,3.7-33.6,6-50.5,6.7
		c-0.3,0.7-0.5,1.3-0.8,2c4.4,3.6,7.2,9.2,7.2,15.3c0,11-8.9,19.9-19.9,19.9c-11,0-19.9-8.9-19.9-19.9c0-6.2,2.8-11.7,7.2-15.3
		c-0.2-0.7-0.5-1.4-0.8-2c-17-0.8-33.9-3-50.5-6.7h0h0v0c-3.7,16.7-6,33.5-6.7,50.5c-0.7,0.3-1.4,0.5-2,0.8
		c-3.6-4.4-9.2-7.2-15.3-7.2c-11,0-19.9,8.9-19.9,19.9c0,11,8.9,19.9,19.9,19.9c6.2,0,11.7-2.8,15.3-7.2c0.7,0.2,1.4,0.5,2,0.8
		c0.8,17,3,33.8,6.7,50.5v0h0h0C288.7,268.3,305.6,266.1,322.6,265.3z"/>
	<path class="st1" d="M649.2,349.5c-0.7-0.3-1.4-0.5-2-0.8c-3.6,4.4-9.2,7.2-15.3,7.2c-11,0-19.9-8.9-19.9-19.9
		c0-11,8.9-19.9,19.9-19.9c6.2,0,11.7,2.8,15.3,7.2c0.7-0.2,1.4-0.5,2-0.8c0.8-17,3-33.9,6.7-50.5v0c0,0,0,0,0,0
		c-16.7-3.7-33.6-6-50.5-6.7c-0.3-0.7-0.5-1.4-0.8-2c4.4-3.6,7.2-9.2,7.2-15.3c0-11-8.9-19.9-19.9-19.9c-11,0-19.9,8.9-19.9,19.9
		c0,6.2,2.8,11.7,7.2,15.3c-0.2,0.7-0.5,1.4-0.8,2c-17,0.8-33.9,3-50.5,6.7c0,0,0,0,0,0v0c3.7,16.7,6,33.6,6.7,50.5
		c0.7,0.3,1.3,0.5,2,0.8c3.6-4.4,9.2-7.2,15.3-7.2c11,0,19.9,8.9,19.9,19.9c0,11-8.9,19.9-19.9,19.9c-6.2,0-11.7-2.8-15.3-7.2
		c-0.7,0.2-1.4,0.5-2,0.8c-0.8,17-3,33.9-6.7,50.5v0v0h0c16.7,3.7,33.5,6,50.5,6.7c0.3,0.7,0.5,1.3,0.8,2c-4.4,3.6-7.2,9.2-7.2,15.3
		c0,11,8.9,19.9,19.9,19.9c11,0,19.9-8.9,19.9-19.9c0-6.2-2.8-11.7-7.2-15.3c0.2-0.7,0.5-1.4,0.8-2c17-0.8,33.8-3,50.5-6.7h0v0v0
		C652.2,383.3,650,366.4,649.2,349.5z"/>
	<path class="st2" d="M521.2,221.5c-0.7-0.3-1.3-0.5-2-0.8c-3.6,4.4-9.2,7.2-15.3,7.2c-11,0-19.9-8.9-19.9-19.9
		c0-11,8.9-19.9,19.9-19.9c6.2,0,11.7,2.8,15.3,7.2c0.7-0.2,1.4-0.5,2-0.8c0.8-17,3-33.9,6.7-50.5v0c0,0,0,0,0,0
		c-16.7-3.7-33.6-6-50.5-6.8c-0.3-0.7-0.5-1.3-0.8-2c4.4-3.6,7.2-9.2,7.2-15.3c0-11-8.9-19.9-19.9-19.9c-11,0-19.9,8.9-19.9,19.9
		c0,6.2,2.8,11.7,7.2,15.3c-0.2,0.7-0.5,1.4-0.8,2c-17,0.8-33.9,3-50.5,6.8c0,0,0,0,0,0v0c3.7,16.7,6,33.6,6.7,50.5
		c0.7,0.3,1.3,0.5,2,0.8c3.6-4.4,9.2-7.2,15.3-7.2c11,0,19.9,8.9,19.9,19.9c0,11-8.9,19.9-19.9,19.9c-6.2,0-11.7-2.8-15.3-7.2
		c-0.7,0.2-1.4,0.5-2,0.8c-0.8,17-3,33.9-6.7,50.5v0v0h0c16.7,3.7,33.5,6,50.5,6.7c0.3,0.7,0.5,1.3,0.8,2c-4.4,3.6-7.2,9.2-7.2,15.3
		c0,11,8.9,19.9,19.9,19.9c11,0,19.9-8.9,19.9-19.9c0-6.2-2.8-11.7-7.2-15.3c0.2-0.7,0.5-1.4,0.8-2c17-0.8,33.8-3,50.5-6.7h0v0v0
		C524.3,255.3,522,238.4,521.2,221.5z"/>
	<path class="st3" d="M450.5,393.3c0.3-0.7,0.5-1.4,0.8-2c-4.4-3.6-7.2-9.2-7.2-15.3c0-11,8.9-19.9,19.9-19.9
		c11,0,19.9,8.9,19.9,19.9c0,6.2-2.8,11.7-7.2,15.3c0.2,0.7,0.5,1.4,0.8,2c17,0.8,33.9,3,50.5,6.7h0c0,0,0,0,0,0
		c3.7-16.7,6-33.6,6.7-50.5c0.7-0.3,1.3-0.5,2-0.8c3.6,4.4,9.2,7.2,15.3,7.2c11,0,19.9-8.9,19.9-19.9c0-11-8.9-19.9-19.9-19.9
		c-6.2,0-11.7,2.8-15.3,7.2c-0.7-0.2-1.4-0.5-2-0.8c-0.8-17-3-33.9-6.7-50.5c0,0,0,0,0,0h0c-16.7,3.7-33.6,6-50.5,6.7
		c-0.3,0.7-0.5,1.4-0.8,2c4.4,3.6,7.2,9.2,7.2,15.3c0,11-8.9,19.9-19.9,19.9c-11,0-19.9-8.9-19.9-19.9c0-6.2,2.8-11.7,7.2-15.3
		c-0.2-0.7-0.5-1.4-0.8-2c-17-0.8-33.9-3-50.5-6.7h0h0v0c-3.7,16.7-6,33.5-6.7,50.5c-0.7,0.3-1.4,0.5-2,0.8
		c-3.6-4.4-9.2-7.2-15.3-7.2c-11,0-19.9,8.9-19.9,19.9c0,11,8.9,19.9,19.9,19.9c6.2,0,11.7-2.8,15.3-7.2c0.7,0.2,1.4,0.5,2,0.8
		c0.8,17,3,33.8,6.7,50.5v0h0h0C416.7,396.3,433.6,394,450.5,393.3z"/>
	<path class="st0" d="M578.5,265.3c0.3-0.7,0.5-1.4,0.8-2c-4.4-3.6-7.2-9.2-7.2-15.3c0-11,8.9-19.9,19.9-19.9
		c11,0,19.9,8.9,19.9,19.9c0,6.2-2.8,11.7-7.2,15.3c0.2,0.7,0.5,1.4,0.8,2c17,0.8,33.9,3,50.5,6.7h0l0,0c3.7-16.7,6-33.6,6.8-50.5
		c0.7-0.3,1.3-0.5,2-0.8c3.6,4.4,9.2,7.2,15.3,7.2c11,0,19.9-8.9,19.9-19.9c0-11-8.9-19.9-19.9-19.9c-6.2,0-11.7,2.8-15.3,7.2
		c-0.7-0.2-1.4-0.5-2-0.8c-0.8-17-3-33.9-6.8-50.5l0,0h0c-16.7,3.7-33.6,6-50.5,6.7c-0.3,0.7-0.5,1.3-0.8,2
		c4.4,3.6,7.2,9.2,7.2,15.3c0,11-8.9,19.9-19.9,19.9c-11,0-19.9-8.9-19.9-19.9c0-6.2,2.8-11.7,7.2-15.3c-0.2-0.7-0.5-1.4-0.8-2
		c-17-0.8-33.9-3-50.5-6.7h0h0v0c-3.7,16.7-6,33.5-6.7,50.5c-0.7,0.3-1.4,0.5-2,0.8c-3.6-4.4-9.2-7.2-15.3-7.2
		c-11,0-19.9,8.9-19.9,19.9c0,11,8.9,19.9,19.9,19.9c6.2,0,11.7-2.8,15.3-7.2c0.7,0.2,1.4,0.5,2,0.8c0.8,17,3,33.8,6.7,50.5v0h0h0
		C544.7,268.3,561.6,266.1,578.5,265.3z"/>
</g>
</svg>
